<?xml version="1.0" encoding="utf-8" standalone="no"?>
<!DOCTYPE svg PUBLIC "-//W3C//DTD SVG 1.1//EN"
  "http://www.w3.org/Graphics/SVG/1.1/DTD/svg11.dtd">
<!-- Created with matplotlib (http://matplotlib.org/) -->
<svg height="345pt" version="1.1" viewBox="0 0 460 345" width="460pt" xmlns="http://www.w3.org/2000/svg" xmlns:xlink="http://www.w3.org/1999/xlink">
 <defs>
  <style type="text/css">
*{stroke-linecap:butt;stroke-linejoin:round;}
  </style>
 </defs>
 <g id="figure_1">
  <g id="patch_1">
   <path d="M 0 345.6 
L 460.8 345.6 
L 460.8 0 
L 0 0 
z
" style="fill:#ffffff;"/>
  </g>
  <g id="axes_1">
   <g id="patch_2">
    <path d="M 57.6 307.584 
L 414.72 307.584 
L 414.72 41.472 
L 57.6 41.472 
z
" style="fill:#ffffff;"/>
   </g>
   <g id="matplotlib.axis_1">
    <g id="xtick_1">
     <g id="line2d_1">
      <defs>
       <path d="M 0 0 
L 0 3.5 
" id="mc252c7f13c" style="stroke:#000000;stroke-width:0.8;"/>
      </defs>
      <g>
       <use style="stroke:#000000;stroke-width:0.8;" x="73.832727" xlink:href="#mc252c7f13c" y="307.584"/>
      </g>
     </g>
     <g id="text_1">
      <!-- 0 -->
      <defs>
       <path d="M 31.78125 66.40625 
Q 24.171875 66.40625 20.328125 58.90625 
Q 16.5 51.421875 16.5 36.375 
Q 16.5 21.390625 20.328125 13.890625 
Q 24.171875 6.390625 31.78125 6.390625 
Q 39.453125 6.390625 43.28125 13.890625 
Q 47.125 21.390625 47.125 36.375 
Q 47.125 51.421875 43.28125 58.90625 
Q 39.453125 66.40625 31.78125 66.40625 
M 31.78125 74.21875 
Q 44.046875 74.21875 50.515625 64.515625 
Q 56.984375 54.828125 56.984375 36.375 
Q 56.984375 17.96875 50.515625 8.265625 
Q 44.046875 -1.421875 31.78125 -1.421875 
Q 19.53125 -1.421875 13.0625 8.265625 
Q 6.59375 17.96875 6.59375 36.375 
Q 6.59375 54.828125 13.0625 64.515625 
Q 19.53125 74.21875 31.78125 74.21875 
" id="DejaVuSans-30"/>
      </defs>
      <g transform="translate(70.651477 322.182437)scale(0.1 -0.1)">
       <use xlink:href="#DejaVuSans-30"/>
      </g>
     </g>
    </g>
    <g id="xtick_2">
     <g id="line2d_2">
      <g>
       <use style="stroke:#000000;stroke-width:0.8;" x="116.663142" xlink:href="#mc252c7f13c" y="307.584"/>
      </g>
     </g>
     <g id="text_2">
      <!-- 50 -->
      <defs>
       <path d="M 10.796875 72.90625 
L 49.515625 72.90625 
L 49.515625 64.59375 
L 19.828125 64.59375 
L 19.828125 46.734375 
Q 21.96875 47.46875 24.109375 47.828125 
Q 26.265625 48.1875 28.421875 48.1875 
Q 40.625 48.1875 47.75 41.5 
Q 54.890625 34.8125 54.890625 23.390625 
Q 54.890625 11.625 47.5625 5.09375 
Q 40.234375 -1.421875 26.90625 -1.421875 
Q 22.3125 -1.421875 17.546875 -0.640625 
Q 12.796875 0.140625 7.71875 1.703125 
L 7.71875 11.625 
Q 12.109375 9.234375 16.796875 8.0625 
Q 21.484375 6.890625 26.703125 6.890625 
Q 35.15625 6.890625 40.078125 11.328125 
Q 45.015625 15.765625 45.015625 23.390625 
Q 45.015625 31 40.078125 35.4375 
Q 35.15625 39.890625 26.703125 39.890625 
Q 22.75 39.890625 18.8125 39.015625 
Q 14.890625 38.140625 10.796875 36.28125 
z
" id="DejaVuSans-35"/>
      </defs>
      <g transform="translate(110.300642 322.182437)scale(0.1 -0.1)">
       <use xlink:href="#DejaVuSans-35"/>
       <use x="63.623047" xlink:href="#DejaVuSans-30"/>
      </g>
     </g>
    </g>
    <g id="xtick_3">
     <g id="line2d_3">
      <g>
       <use style="stroke:#000000;stroke-width:0.8;" x="159.493557" xlink:href="#mc252c7f13c" y="307.584"/>
      </g>
     </g>
     <g id="text_3">
      <!-- 100 -->
      <defs>
       <path d="M 12.40625 8.296875 
L 28.515625 8.296875 
L 28.515625 63.921875 
L 10.984375 60.40625 
L 10.984375 69.390625 
L 28.421875 72.90625 
L 38.28125 72.90625 
L 38.28125 8.296875 
L 54.390625 8.296875 
L 54.390625 0 
L 12.40625 0 
z
" id="DejaVuSans-31"/>
      </defs>
      <g transform="translate(149.949807 322.182437)scale(0.1 -0.1)">
       <use xlink:href="#DejaVuSans-31"/>
       <use x="63.623047" xlink:href="#DejaVuSans-30"/>
       <use x="127.246094" xlink:href="#DejaVuSans-30"/>
      </g>
     </g>
    </g>
    <g id="xtick_4">
     <g id="line2d_4">
      <g>
       <use style="stroke:#000000;stroke-width:0.8;" x="202.323972" xlink:href="#mc252c7f13c" y="307.584"/>
      </g>
     </g>
     <g id="text_4">
      <!-- 150 -->
      <g transform="translate(192.780222 322.182437)scale(0.1 -0.1)">
       <use xlink:href="#DejaVuSans-31"/>
       <use x="63.623047" xlink:href="#DejaVuSans-35"/>
       <use x="127.246094" xlink:href="#DejaVuSans-30"/>
      </g>
     </g>
    </g>
    <g id="xtick_5">
     <g id="line2d_5">
      <g>
       <use style="stroke:#000000;stroke-width:0.8;" x="245.154387" xlink:href="#mc252c7f13c" y="307.584"/>
      </g>
     </g>
     <g id="text_5">
      <!-- 200 -->
      <defs>
       <path d="M 19.1875 8.296875 
L 53.609375 8.296875 
L 53.609375 0 
L 7.328125 0 
L 7.328125 8.296875 
Q 12.9375 14.109375 22.625 23.890625 
Q 32.328125 33.6875 34.8125 36.53125 
Q 39.546875 41.84375 41.421875 45.53125 
Q 43.3125 49.21875 43.3125 52.78125 
Q 43.3125 58.59375 39.234375 62.25 
Q 35.15625 65.921875 28.609375 65.921875 
Q 23.96875 65.921875 18.8125 64.3125 
Q 13.671875 62.703125 7.8125 59.421875 
L 7.8125 69.390625 
Q 13.765625 71.78125 18.9375 73 
Q 24.125 74.21875 28.421875 74.21875 
Q 39.75 74.21875 46.484375 68.546875 
Q 53.21875 62.890625 53.21875 53.421875 
Q 53.21875 48.921875 51.53125 44.890625 
Q 49.859375 40.875 45.40625 35.40625 
Q 44.1875 33.984375 37.640625 27.21875 
Q 31.109375 20.453125 19.1875 8.296875 
" id="DejaVuSans-32"/>
      </defs>
      <g transform="translate(235.610637 322.182437)scale(0.1 -0.1)">
       <use xlink:href="#DejaVuSans-32"/>
       <use x="63.623047" xlink:href="#DejaVuSans-30"/>
       <use x="127.246094" xlink:href="#DejaVuSans-30"/>
      </g>
     </g>
    </g>
    <g id="xtick_6">
     <g id="line2d_6">
      <g>
       <use style="stroke:#000000;stroke-width:0.8;" x="287.984802" xlink:href="#mc252c7f13c" y="307.584"/>
      </g>
     </g>
     <g id="text_6">
      <!-- 250 -->
      <g transform="translate(278.441052 322.182437)scale(0.1 -0.1)">
       <use xlink:href="#DejaVuSans-32"/>
       <use x="63.623047" xlink:href="#DejaVuSans-35"/>
       <use x="127.246094" xlink:href="#DejaVuSans-30"/>
      </g>
     </g>
    </g>
    <g id="xtick_7">
     <g id="line2d_7">
      <g>
       <use style="stroke:#000000;stroke-width:0.8;" x="330.815217" xlink:href="#mc252c7f13c" y="307.584"/>
      </g>
     </g>
     <g id="text_7">
      <!-- 300 -->
      <defs>
       <path d="M 40.578125 39.3125 
Q 47.65625 37.796875 51.625 33 
Q 55.609375 28.21875 55.609375 21.1875 
Q 55.609375 10.40625 48.1875 4.484375 
Q 40.765625 -1.421875 27.09375 -1.421875 
Q 22.515625 -1.421875 17.65625 -0.515625 
Q 12.796875 0.390625 7.625 2.203125 
L 7.625 11.71875 
Q 11.71875 9.328125 16.59375 8.109375 
Q 21.484375 6.890625 26.8125 6.890625 
Q 36.078125 6.890625 40.9375 10.546875 
Q 45.796875 14.203125 45.796875 21.1875 
Q 45.796875 27.640625 41.28125 31.265625 
Q 36.765625 34.90625 28.71875 34.90625 
L 20.21875 34.90625 
L 20.21875 43.015625 
L 29.109375 43.015625 
Q 36.375 43.015625 40.234375 45.921875 
Q 44.09375 48.828125 44.09375 54.296875 
Q 44.09375 59.90625 40.109375 62.90625 
Q 36.140625 65.921875 28.71875 65.921875 
Q 24.65625 65.921875 20.015625 65.03125 
Q 15.375 64.15625 9.8125 62.3125 
L 9.8125 71.09375 
Q 15.4375 72.65625 20.34375 73.4375 
Q 25.25 74.21875 29.59375 74.21875 
Q 40.828125 74.21875 47.359375 69.109375 
Q 53.90625 64.015625 53.90625 55.328125 
Q 53.90625 49.265625 50.4375 45.09375 
Q 46.96875 40.921875 40.578125 39.3125 
" id="DejaVuSans-33"/>
      </defs>
      <g transform="translate(321.271467 322.182437)scale(0.1 -0.1)">
       <use xlink:href="#DejaVuSans-33"/>
       <use x="63.623047" xlink:href="#DejaVuSans-30"/>
       <use x="127.246094" xlink:href="#DejaVuSans-30"/>
      </g>
     </g>
    </g>
    <g id="xtick_8">
     <g id="line2d_8">
      <g>
       <use style="stroke:#000000;stroke-width:0.8;" x="373.645632" xlink:href="#mc252c7f13c" y="307.584"/>
      </g>
     </g>
     <g id="text_8">
      <!-- 350 -->
      <g transform="translate(364.101882 322.182437)scale(0.1 -0.1)">
       <use xlink:href="#DejaVuSans-33"/>
       <use x="63.623047" xlink:href="#DejaVuSans-35"/>
       <use x="127.246094" xlink:href="#DejaVuSans-30"/>
      </g>
     </g>
    </g>
    <g id="text_9">
     <!-- epoch -->
     <defs>
      <path d="M 56.203125 29.59375 
L 56.203125 25.203125 
L 14.890625 25.203125 
Q 15.484375 15.921875 20.484375 11.0625 
Q 25.484375 6.203125 34.421875 6.203125 
Q 39.59375 6.203125 44.453125 7.46875 
Q 49.3125 8.734375 54.109375 11.28125 
L 54.109375 2.78125 
Q 49.265625 0.734375 44.1875 -0.34375 
Q 39.109375 -1.421875 33.890625 -1.421875 
Q 20.796875 -1.421875 13.15625 6.1875 
Q 5.515625 13.8125 5.515625 26.8125 
Q 5.515625 40.234375 12.765625 48.109375 
Q 20.015625 56 32.328125 56 
Q 43.359375 56 49.78125 48.890625 
Q 56.203125 41.796875 56.203125 29.59375 
M 47.21875 32.234375 
Q 47.125 39.59375 43.09375 43.984375 
Q 39.0625 48.390625 32.421875 48.390625 
Q 24.90625 48.390625 20.390625 44.140625 
Q 15.875 39.890625 15.1875 32.171875 
z
" id="DejaVuSans-65"/>
      <path d="M 18.109375 8.203125 
L 18.109375 -20.796875 
L 9.078125 -20.796875 
L 9.078125 54.6875 
L 18.109375 54.6875 
L 18.109375 46.390625 
Q 20.953125 51.265625 25.265625 53.625 
Q 29.59375 56 35.59375 56 
Q 45.5625 56 51.78125 48.09375 
Q 58.015625 40.1875 58.015625 27.296875 
Q 58.015625 14.40625 51.78125 6.484375 
Q 45.5625 -1.421875 35.59375 -1.421875 
Q 29.59375 -1.421875 25.265625 0.953125 
Q 20.953125 3.328125 18.109375 8.203125 
M 48.6875 27.296875 
Q 48.6875 37.203125 44.609375 42.84375 
Q 40.53125 48.484375 33.40625 48.484375 
Q 26.265625 48.484375 22.1875 42.84375 
Q 18.109375 37.203125 18.109375 27.296875 
Q 18.109375 17.390625 22.1875 11.75 
Q 26.265625 6.109375 33.40625 6.109375 
Q 40.53125 6.109375 44.609375 11.75 
Q 48.6875 17.390625 48.6875 27.296875 
" id="DejaVuSans-70"/>
      <path d="M 30.609375 48.390625 
Q 23.390625 48.390625 19.1875 42.75 
Q 14.984375 37.109375 14.984375 27.296875 
Q 14.984375 17.484375 19.15625 11.84375 
Q 23.34375 6.203125 30.609375 6.203125 
Q 37.796875 6.203125 41.984375 11.859375 
Q 46.1875 17.53125 46.1875 27.296875 
Q 46.1875 37.015625 41.984375 42.703125 
Q 37.796875 48.390625 30.609375 48.390625 
M 30.609375 56 
Q 42.328125 56 49.015625 48.375 
Q 55.71875 40.765625 55.71875 27.296875 
Q 55.71875 13.875 49.015625 6.21875 
Q 42.328125 -1.421875 30.609375 -1.421875 
Q 18.84375 -1.421875 12.171875 6.21875 
Q 5.515625 13.875 5.515625 27.296875 
Q 5.515625 40.765625 12.171875 48.375 
Q 18.84375 56 30.609375 56 
" id="DejaVuSans-6f"/>
      <path d="M 48.78125 52.59375 
L 48.78125 44.1875 
Q 44.96875 46.296875 41.140625 47.34375 
Q 37.3125 48.390625 33.40625 48.390625 
Q 24.65625 48.390625 19.8125 42.84375 
Q 14.984375 37.3125 14.984375 27.296875 
Q 14.984375 17.28125 19.8125 11.734375 
Q 24.65625 6.203125 33.40625 6.203125 
Q 37.3125 6.203125 41.140625 7.25 
Q 44.96875 8.296875 48.78125 10.40625 
L 48.78125 2.09375 
Q 45.015625 0.34375 40.984375 -0.53125 
Q 36.96875 -1.421875 32.421875 -1.421875 
Q 20.0625 -1.421875 12.78125 6.34375 
Q 5.515625 14.109375 5.515625 27.296875 
Q 5.515625 40.671875 12.859375 48.328125 
Q 20.21875 56 33.015625 56 
Q 37.15625 56 41.109375 55.140625 
Q 45.0625 54.296875 48.78125 52.59375 
" id="DejaVuSans-63"/>
      <path d="M 54.890625 33.015625 
L 54.890625 0 
L 45.90625 0 
L 45.90625 32.71875 
Q 45.90625 40.484375 42.875 44.328125 
Q 39.84375 48.1875 33.796875 48.1875 
Q 26.515625 48.1875 22.3125 43.546875 
Q 18.109375 38.921875 18.109375 30.90625 
L 18.109375 0 
L 9.078125 0 
L 9.078125 75.984375 
L 18.109375 75.984375 
L 18.109375 46.1875 
Q 21.34375 51.125 25.703125 53.5625 
Q 30.078125 56 35.796875 56 
Q 45.21875 56 50.046875 50.171875 
Q 54.890625 44.34375 54.890625 33.015625 
" id="DejaVuSans-68"/>
     </defs>
     <g transform="translate(220.931875 335.860562)scale(0.1 -0.1)">
      <use xlink:href="#DejaVuSans-65"/>
      <use x="61.523438" xlink:href="#DejaVuSans-70"/>
      <use x="125" xlink:href="#DejaVuSans-6f"/>
      <use x="186.181641" xlink:href="#DejaVuSans-63"/>
      <use x="241.162109" xlink:href="#DejaVuSans-68"/>
     </g>
    </g>
   </g>
   <g id="matplotlib.axis_2">
    <g id="ytick_1">
     <g id="line2d_9">
      <defs>
       <path d="M 0 0 
L -3.5 0 
" id="m3c347cb582" style="stroke:#000000;stroke-width:0.8;"/>
      </defs>
      <g>
       <use style="stroke:#000000;stroke-width:0.8;" x="57.6" xlink:href="#m3c347cb582" y="299.942554"/>
      </g>
     </g>
     <g id="text_10">
      <!-- 0.005 -->
      <defs>
       <path d="M 10.6875 12.40625 
L 21 12.40625 
L 21 0 
L 10.6875 0 
z
" id="DejaVuSans-2e"/>
      </defs>
      <g transform="translate(21.971875 303.741773)scale(0.1 -0.1)">
       <use xlink:href="#DejaVuSans-30"/>
       <use x="63.623047" xlink:href="#DejaVuSans-2e"/>
       <use x="95.410156" xlink:href="#DejaVuSans-30"/>
       <use x="159.033203" xlink:href="#DejaVuSans-30"/>
       <use x="222.65625" xlink:href="#DejaVuSans-35"/>
      </g>
     </g>
    </g>
    <g id="ytick_2">
     <g id="line2d_10">
      <g>
       <use style="stroke:#000000;stroke-width:0.8;" x="57.6" xlink:href="#m3c347cb582" y="259.831478"/>
      </g>
     </g>
     <g id="text_11">
      <!-- 0.010 -->
      <g transform="translate(21.971875 263.630697)scale(0.1 -0.1)">
       <use xlink:href="#DejaVuSans-30"/>
       <use x="63.623047" xlink:href="#DejaVuSans-2e"/>
       <use x="95.410156" xlink:href="#DejaVuSans-30"/>
       <use x="159.033203" xlink:href="#DejaVuSans-31"/>
       <use x="222.65625" xlink:href="#DejaVuSans-30"/>
      </g>
     </g>
    </g>
    <g id="ytick_3">
     <g id="line2d_11">
      <g>
       <use style="stroke:#000000;stroke-width:0.8;" x="57.6" xlink:href="#m3c347cb582" y="219.720402"/>
      </g>
     </g>
     <g id="text_12">
      <!-- 0.015 -->
      <g transform="translate(21.971875 223.51962)scale(0.1 -0.1)">
       <use xlink:href="#DejaVuSans-30"/>
       <use x="63.623047" xlink:href="#DejaVuSans-2e"/>
       <use x="95.410156" xlink:href="#DejaVuSans-30"/>
       <use x="159.033203" xlink:href="#DejaVuSans-31"/>
       <use x="222.65625" xlink:href="#DejaVuSans-35"/>
      </g>
     </g>
    </g>
    <g id="ytick_4">
     <g id="line2d_12">
      <g>
       <use style="stroke:#000000;stroke-width:0.8;" x="57.6" xlink:href="#m3c347cb582" y="179.609325"/>
      </g>
     </g>
     <g id="text_13">
      <!-- 0.020 -->
      <g transform="translate(21.971875 183.408544)scale(0.1 -0.1)">
       <use xlink:href="#DejaVuSans-30"/>
       <use x="63.623047" xlink:href="#DejaVuSans-2e"/>
       <use x="95.410156" xlink:href="#DejaVuSans-30"/>
       <use x="159.033203" xlink:href="#DejaVuSans-32"/>
       <use x="222.65625" xlink:href="#DejaVuSans-30"/>
      </g>
     </g>
    </g>
    <g id="ytick_5">
     <g id="line2d_13">
      <g>
       <use style="stroke:#000000;stroke-width:0.8;" x="57.6" xlink:href="#m3c347cb582" y="139.498249"/>
      </g>
     </g>
     <g id="text_14">
      <!-- 0.025 -->
      <g transform="translate(21.971875 143.297468)scale(0.1 -0.1)">
       <use xlink:href="#DejaVuSans-30"/>
       <use x="63.623047" xlink:href="#DejaVuSans-2e"/>
       <use x="95.410156" xlink:href="#DejaVuSans-30"/>
       <use x="159.033203" xlink:href="#DejaVuSans-32"/>
       <use x="222.65625" xlink:href="#DejaVuSans-35"/>
      </g>
     </g>
    </g>
    <g id="ytick_6">
     <g id="line2d_14">
      <g>
       <use style="stroke:#000000;stroke-width:0.8;" x="57.6" xlink:href="#m3c347cb582" y="99.387173"/>
      </g>
     </g>
     <g id="text_15">
      <!-- 0.030 -->
      <g transform="translate(21.971875 103.186391)scale(0.1 -0.1)">
       <use xlink:href="#DejaVuSans-30"/>
       <use x="63.623047" xlink:href="#DejaVuSans-2e"/>
       <use x="95.410156" xlink:href="#DejaVuSans-30"/>
       <use x="159.033203" xlink:href="#DejaVuSans-33"/>
       <use x="222.65625" xlink:href="#DejaVuSans-30"/>
      </g>
     </g>
    </g>
    <g id="ytick_7">
     <g id="line2d_15">
      <g>
       <use style="stroke:#000000;stroke-width:0.8;" x="57.6" xlink:href="#m3c347cb582" y="59.276096"/>
      </g>
     </g>
     <g id="text_16">
      <!-- 0.035 -->
      <g transform="translate(21.971875 63.075315)scale(0.1 -0.1)">
       <use xlink:href="#DejaVuSans-30"/>
       <use x="63.623047" xlink:href="#DejaVuSans-2e"/>
       <use x="95.410156" xlink:href="#DejaVuSans-30"/>
       <use x="159.033203" xlink:href="#DejaVuSans-33"/>
       <use x="222.65625" xlink:href="#DejaVuSans-35"/>
      </g>
     </g>
    </g>
    <g id="text_17">
     <!-- loss -->
     <defs>
      <path d="M 9.421875 75.984375 
L 18.40625 75.984375 
L 18.40625 0 
L 9.421875 0 
z
" id="DejaVuSans-6c"/>
      <path d="M 44.28125 53.078125 
L 44.28125 44.578125 
Q 40.484375 46.53125 36.375 47.5 
Q 32.28125 48.484375 27.875 48.484375 
Q 21.1875 48.484375 17.84375 46.4375 
Q 14.5 44.390625 14.5 40.28125 
Q 14.5 37.15625 16.890625 35.375 
Q 19.28125 33.59375 26.515625 31.984375 
L 29.59375 31.296875 
Q 39.15625 29.25 43.1875 25.515625 
Q 47.21875 21.78125 47.21875 15.09375 
Q 47.21875 7.46875 41.1875 3.015625 
Q 35.15625 -1.421875 24.609375 -1.421875 
Q 20.21875 -1.421875 15.453125 -0.5625 
Q 10.6875 0.296875 5.421875 2 
L 5.421875 11.28125 
Q 10.40625 8.6875 15.234375 7.390625 
Q 20.0625 6.109375 24.8125 6.109375 
Q 31.15625 6.109375 34.5625 8.28125 
Q 37.984375 10.453125 37.984375 14.40625 
Q 37.984375 18.0625 35.515625 20.015625 
Q 33.0625 21.96875 24.703125 23.78125 
L 21.578125 24.515625 
Q 13.234375 26.265625 9.515625 29.90625 
Q 5.8125 33.546875 5.8125 39.890625 
Q 5.8125 47.609375 11.28125 51.796875 
Q 16.75 56 26.8125 56 
Q 31.78125 56 36.171875 55.265625 
Q 40.578125 54.546875 44.28125 53.078125 
" id="DejaVuSans-73"/>
     </defs>
     <g transform="translate(15.892188 184.185812)rotate(-90)scale(0.1 -0.1)">
      <use xlink:href="#DejaVuSans-6c"/>
      <use x="27.783203" xlink:href="#DejaVuSans-6f"/>
      <use x="88.964844" xlink:href="#DejaVuSans-73"/>
      <use x="141.064453" xlink:href="#DejaVuSans-73"/>
     </g>
    </g>
   </g>
   <g id="line2d_16">
    <path clip-path="url(#p51c5991d1a)" d="M 73.832727 53.568 
L 74.689336 97.826114 
L 75.545944 120.64636 
L 76.402552 135.754356 
L 77.25916 147.508969 
L 78.115769 156.578864 
L 79.828985 170.872312 
L 81.542202 181.609714 
L 83.255419 190.156672 
L 84.968635 197.374846 
L 86.681852 203.507876 
L 89.251677 210.886886 
L 90.108285 213.178769 
L 91.821502 216.979476 
L 92.67811 219.259151 
L 94.391326 222.460664 
L 95.247935 224.319733 
L 96.104543 225.648193 
L 96.961151 227.201976 
L 98.674368 229.567206 
L 100.387585 232.303486 
L 101.244193 233.297178 
L 102.100801 234.546638 
L 107.240451 240.226593 
L 108.097059 240.969845 
L 109.810276 242.688948 
L 110.666884 243.397897 
L 112.380101 245.063381 
L 115.806534 247.528202 
L 116.663142 248.345532 
L 117.519751 248.86359 
L 119.232967 250.201096 
L 121.802792 251.971686 
L 122.6594 252.318278 
L 123.516009 253.067401 
L 124.372617 253.574022 
L 125.229225 253.907589 
L 126.942442 255.1198 
L 127.79905 255.420434 
L 128.655658 256.140685 
L 130.368875 256.72835 
L 131.225483 257.371207 
L 136.365133 259.877201 
L 137.221741 260.031978 
L 138.934958 260.964603 
L 141.504783 261.945252 
L 142.361391 262.513966 
L 144.074608 263.087108 
L 144.931216 263.468013 
L 145.787824 263.680628 
L 147.501041 264.371443 
L 148.357649 264.650507 
L 149.214258 265.05328 
L 150.070866 265.234405 
L 150.927474 265.656125 
L 151.784083 265.953099 
L 152.640691 266.375759 
L 153.497299 266.497205 
L 154.353907 266.771149 
L 155.210516 266.885414 
L 156.067124 267.366749 
L 156.923732 267.499077 
L 159.493557 268.448408 
L 162.063382 269.074171 
L 162.91999 269.422483 
L 163.776599 269.570304 
L 164.633207 269.950758 
L 167.203032 270.644789 
L 168.05964 270.671062 
L 169.772857 271.301111 
L 172.342682 271.932121 
L 173.19929 272.190441 
L 174.055898 272.196825 
L 174.912507 272.417692 
L 175.769115 272.799194 
L 176.625723 272.921707 
L 177.482331 273.258874 
L 179.195548 273.436018 
L 180.052156 273.869753 
L 180.908765 273.959817 
L 181.765373 274.235821 
L 183.47859 274.491943 
L 184.335198 274.819313 
L 186.905023 275.096869 
L 187.761631 275.384346 
L 191.188064 276.042896 
L 192.901281 276.489816 
L 193.757889 276.455501 
L 195.471106 276.858013 
L 196.327714 276.922269 
L 200.610756 277.909988 
L 201.467364 277.89294 
L 202.323972 278.211534 
L 203.18058 278.248549 
L 204.037189 278.493186 
L 205.750405 278.67275 
L 206.607014 278.680519 
L 207.463622 279.043925 
L 209.176839 279.278179 
L 212.603272 279.69047 
L 214.316488 280.116696 
L 215.173097 280.075111 
L 217.742922 280.571598 
L 220.312746 280.814293 
L 224.595788 281.534478 
L 225.452396 281.475086 
L 226.309005 281.820394 
L 227.165613 281.867854 
L 228.878829 282.124056 
L 229.735438 282.048833 
L 230.592046 282.407966 
L 231.448654 282.280127 
L 233.161871 282.719404 
L 234.018479 282.650316 
L 236.588304 283.330094 
L 237.444912 283.109112 
L 239.158129 283.447952 
L 244.297779 284.038059 
L 245.154387 284.245241 
L 246.010995 284.133444 
L 246.867604 284.481805 
L 247.724212 284.335984 
L 249.437429 284.598111 
L 252.007254 284.803452 
L 253.72047 285.208098 
L 255.433687 285.26559 
L 257.146903 285.373329 
L 258.003512 285.598756 
L 260.573337 285.694424 
L 262.286553 286.02441 
L 263.143161 285.969817 
L 264.856378 286.339129 
L 265.712986 286.254063 
L 266.569595 286.402664 
L 267.426203 286.426265 
L 268.282811 286.59962 
L 269.13942 286.654815 
L 269.996028 286.867162 
L 272.565853 287.013437 
L 274.279069 287.101472 
L 275.135678 287.327965 
L 280.275327 287.622273 
L 281.131936 287.904163 
L 281.988544 287.812866 
L 282.845152 287.962532 
L 285.414977 288.078409 
L 287.128194 288.274377 
L 289.698019 288.513562 
L 291.411235 288.848095 
L 292.267844 288.645456 
L 293.124452 288.849957 
L 294.837669 288.882946 
L 299.977318 289.34938 
L 302.547143 289.512967 
L 304.26036 289.677276 
L 305.116968 289.658241 
L 305.973576 289.824038 
L 306.830185 289.793237 
L 307.686793 290.011718 
L 309.40001 290.196456 
L 310.256618 290.051287 
L 312.826443 290.363014 
L 321.392526 290.925416 
L 322.249134 291.066138 
L 323.105742 291.063986 
L 323.962351 291.241728 
L 325.675567 291.185969 
L 327.388784 291.456156 
L 330.815217 291.554022 
L 331.671825 291.713148 
L 332.528434 291.680818 
L 333.385042 291.906225 
L 334.24165 291.80606 
L 335.098259 291.974178 
L 335.954867 291.781297 
L 336.811475 292.076287 
L 337.668083 292.016899 
L 338.524692 292.134343 
L 341.094517 292.243894 
L 346.234166 292.774671 
L 348.803991 292.620678 
L 349.6606 292.751268 
L 350.517208 292.764627 
L 352.230425 292.937963 
L 353.943641 293.131779 
L 354.800249 293.123693 
L 355.656858 293.26153 
L 356.513466 293.12691 
L 357.370074 293.33359 
L 358.226683 293.219178 
L 359.939899 293.494857 
L 360.796508 293.425797 
L 362.509724 293.711832 
L 363.366332 293.566868 
L 364.222941 293.771246 
L 366.792766 293.722161 
L 367.649374 293.960465 
L 368.505982 293.807401 
L 369.362591 293.863057 
L 370.219199 294.086929 
L 371.075807 293.943939 
L 372.789024 294.194648 
L 373.645632 294.163835 
L 374.50224 294.275312 
L 375.358849 294.190571 
L 376.215457 294.393996 
L 377.072065 294.245625 
L 377.928674 294.50111 
L 379.64189 294.501231 
L 381.355107 294.592238 
L 386.494757 294.876858 
L 387.351365 295.073272 
L 388.207973 294.970764 
L 389.92119 295.063427 
L 390.777798 294.964656 
L 391.634406 295.128638 
L 392.491015 295.051264 
L 393.347623 295.252016 
L 395.06084 295.332287 
L 396.774056 295.488 
L 398.487273 295.441541 
L 398.487273 295.441541 
" style="fill:none;stroke:#1f77b4;stroke-linecap:square;stroke-width:1.5;"/>
   </g>
   <g id="line2d_17">
    <path clip-path="url(#p51c5991d1a)" d="M 73.832727 77.042839 
L 74.689336 101.451913 
L 75.545944 123.222406 
L 77.25916 145.991255 
L 78.115769 155.914698 
L 78.972377 157.040586 
L 79.828985 167.713286 
L 80.685594 173.532902 
L 81.542202 176.36746 
L 82.39881 180.113867 
L 83.255419 182.347643 
L 84.112027 186.836915 
L 84.968635 187.705499 
L 85.825243 193.600166 
L 86.681852 195.44478 
L 88.395068 201.06326 
L 89.251677 202.807318 
L 90.108285 205.794158 
L 90.964893 206.590399 
L 91.821502 208.671432 
L 92.67811 210.086417 
L 93.534718 211.002008 
L 94.391326 210.865852 
L 96.104543 216.3178 
L 96.961151 216.344396 
L 98.674368 218.983555 
L 99.530976 217.289229 
L 100.387585 220.970103 
L 101.244193 222.448253 
L 102.100801 221.782551 
L 102.957409 223.509362 
L 103.814018 224.003672 
L 104.670626 224.910673 
L 105.527234 224.893956 
L 106.383843 227.020842 
L 107.240451 228.755855 
L 108.097059 229.211503 
L 108.953668 227.274263 
L 109.810276 229.251359 
L 110.666884 230.314547 
L 111.523492 230.154713 
L 112.380101 230.486877 
L 113.236709 233.054485 
L 114.093317 230.693373 
L 114.949926 234.116408 
L 115.806534 234.564918 
L 116.663142 234.425213 
L 117.519751 235.276627 
L 118.376359 235.952425 
L 119.232967 236.04273 
L 120.946184 238.325872 
L 121.802792 238.042485 
L 122.6594 238.422842 
L 123.516009 239.186929 
L 124.372617 238.838207 
L 125.229225 240.159094 
L 126.085834 241.207719 
L 126.942442 240.515974 
L 127.79905 242.190288 
L 129.512267 241.723364 
L 131.225483 243.4719 
L 132.082092 243.119138 
L 132.9387 243.007799 
L 133.795308 245.574005 
L 134.651917 242.625926 
L 135.508525 243.428024 
L 136.365133 245.320768 
L 137.221741 245.59738 
L 138.07835 245.104802 
L 138.934958 246.82463 
L 139.791566 244.878182 
L 140.648175 247.272944 
L 141.504783 247.715494 
L 142.361391 246.199535 
L 143.218 247.191832 
L 144.074608 247.481123 
L 144.931216 248.951427 
L 145.787824 248.831156 
L 146.644433 246.542333 
L 147.501041 249.07201 
L 148.357649 245.826753 
L 149.214258 250.097682 
L 150.070866 250.094374 
L 150.927474 249.653266 
L 152.640691 250.264004 
L 153.497299 251.101818 
L 154.353907 251.323369 
L 155.210516 249.367798 
L 156.067124 250.852194 
L 156.923732 249.865628 
L 157.780341 251.880555 
L 158.636949 250.573762 
L 160.350166 253.076996 
L 162.063382 252.89351 
L 162.91999 250.420016 
L 163.776599 253.495167 
L 164.633207 254.089913 
L 165.489815 254.35041 
L 166.346424 253.285172 
L 168.05964 254.600885 
L 168.916249 254.791469 
L 169.772857 255.271235 
L 170.629465 255.56778 
L 172.342682 255.865761 
L 174.055898 254.73665 
L 174.912507 255.185623 
L 175.769115 255.368284 
L 176.625723 255.001758 
L 177.482331 256.170881 
L 178.33894 256.81986 
L 179.195548 256.923071 
L 180.052156 256.463987 
L 180.908765 256.330287 
L 181.765373 256.810152 
L 182.621981 257.038918 
L 185.191806 257.091443 
L 186.048414 257.694973 
L 186.905023 257.585783 
L 187.761631 256.659821 
L 188.618239 257.125726 
L 189.474848 258.382396 
L 190.331456 257.398935 
L 191.188064 257.629091 
L 192.044673 256.613198 
L 192.901281 258.395463 
L 193.757889 257.790852 
L 194.614497 257.720179 
L 195.471106 253.467357 
L 196.327714 258.424021 
L 197.184322 259.29112 
L 198.040931 258.846652 
L 198.897539 259.204118 
L 199.754147 258.781011 
L 200.610756 259.317187 
L 202.323972 259.242073 
L 203.18058 258.991712 
L 204.037189 259.611259 
L 204.893797 259.170166 
L 205.750405 260.467257 
L 206.607014 259.611823 
L 207.463622 258.303822 
L 208.32023 260.538684 
L 209.176839 260.224343 
L 210.033447 261.066433 
L 210.890055 259.551196 
L 211.746663 260.194307 
L 212.603272 260.078247 
L 213.45988 260.958973 
L 214.316488 261.258658 
L 215.173097 260.62608 
L 216.029705 258.826397 
L 216.886313 261.164414 
L 217.742922 260.837664 
L 218.59953 259.569255 
L 219.456138 261.094534 
L 221.169355 261.818409 
L 222.025963 261.550763 
L 222.882571 261.968808 
L 223.73918 260.677988 
L 224.595788 261.828556 
L 225.452396 261.402232 
L 226.309005 262.301455 
L 227.165613 262.203556 
L 228.022221 262.438698 
L 228.878829 260.494137 
L 229.735438 262.260426 
L 230.592046 261.66977 
L 231.448654 261.812573 
L 232.305263 262.270568 
L 233.161871 262.309091 
L 234.018479 261.788164 
L 234.875088 263.28865 
L 235.731696 263.572698 
L 236.588304 262.228201 
L 237.444912 263.463896 
L 238.301521 262.800177 
L 239.158129 263.486754 
L 240.014737 262.290221 
L 240.871346 261.403684 
L 241.727954 259.269165 
L 242.584562 263.169858 
L 243.441171 263.894076 
L 244.297779 262.876176 
L 245.154387 259.959041 
L 246.010995 263.09642 
L 246.867604 262.703628 
L 247.724212 263.228595 
L 248.58082 264.717203 
L 249.437429 265.15575 
L 251.150645 264.344985 
L 252.007254 264.774047 
L 252.863862 264.951544 
L 253.72047 264.379125 
L 254.577078 263.062266 
L 255.433687 264.858638 
L 256.290295 264.209197 
L 257.146903 264.5566 
L 258.003512 263.913703 
L 258.86012 264.542394 
L 259.716728 264.557546 
L 260.573337 262.854029 
L 261.429945 262.606144 
L 262.286553 264.437893 
L 263.143161 265.179634 
L 263.99977 264.63669 
L 264.856378 265.434011 
L 265.712986 265.738238 
L 266.569595 264.174471 
L 267.426203 264.80908 
L 268.282811 265.963054 
L 269.13942 264.868212 
L 269.996028 264.78431 
L 270.852636 265.177372 
L 271.709244 264.273399 
L 272.565853 265.651472 
L 273.422461 266.192358 
L 274.279069 265.500677 
L 275.135678 265.906129 
L 275.992286 265.250779 
L 277.705503 266.851951 
L 278.562111 264.971357 
L 279.418719 266.120119 
L 280.275327 265.79378 
L 281.131936 263.669016 
L 281.988544 262.981751 
L 282.845152 265.829869 
L 283.701761 265.575389 
L 284.558369 265.882029 
L 285.414977 266.725578 
L 286.271586 266.65503 
L 287.128194 265.485472 
L 287.984802 263.712446 
L 288.84141 267.112704 
L 289.698019 261.570443 
L 290.554627 267.148899 
L 291.411235 266.15455 
L 292.267844 266.934163 
L 293.124452 263.35297 
L 293.98106 267.769065 
L 294.837669 266.58014 
L 295.694277 267.239168 
L 296.550885 266.205031 
L 297.407493 266.824536 
L 298.264102 267.943878 
L 299.12071 266.503311 
L 299.977318 265.804914 
L 300.833927 266.524686 
L 301.690535 264.150551 
L 302.547143 268.001499 
L 303.403751 264.608275 
L 304.26036 268.282807 
L 305.116968 266.667414 
L 305.973576 267.602287 
L 306.830185 266.337733 
L 307.686793 266.905535 
L 308.543401 265.861896 
L 309.40001 267.295266 
L 311.113226 268.1469 
L 311.969834 267.54284 
L 312.826443 268.284279 
L 313.683051 267.458841 
L 314.539659 267.102564 
L 315.396268 265.409595 
L 316.252876 265.367032 
L 317.109484 268.278536 
L 317.966093 267.536008 
L 318.822701 268.206534 
L 319.679309 265.142598 
L 320.535917 268.978547 
L 321.392526 268.511936 
L 322.249134 266.867941 
L 323.105742 267.10689 
L 323.962351 268.818563 
L 324.818959 269.20535 
L 325.675567 268.835839 
L 326.532176 267.885115 
L 327.388784 267.637853 
L 328.245392 269.758068 
L 329.102 268.762272 
L 329.958609 268.370929 
L 330.815217 267.585639 
L 331.671825 268.857707 
L 332.528434 268.152944 
L 333.385042 268.405743 
L 334.24165 268.915255 
L 335.098259 263.673072 
L 335.954867 268.937736 
L 336.811475 266.325166 
L 337.668083 269.395636 
L 338.524692 268.877436 
L 339.3813 268.68724 
L 340.237908 269.993615 
L 341.951125 269.859718 
L 342.807733 269.416921 
L 343.664342 268.846523 
L 344.52095 269.894644 
L 345.377558 268.287211 
L 346.234166 269.479331 
L 347.090775 269.470831 
L 347.947383 269.803937 
L 348.803991 268.939195 
L 349.6606 267.316682 
L 350.517208 268.682653 
L 352.230425 269.866972 
L 353.087033 269.185131 
L 353.943641 269.013687 
L 354.800249 270.305219 
L 356.513466 268.42184 
L 357.370074 269.782862 
L 358.226683 269.482406 
L 359.083291 269.433083 
L 359.939899 268.798355 
L 360.796508 269.675046 
L 361.653116 270.129539 
L 362.509724 269.117465 
L 363.366332 268.458879 
L 364.222941 270.286436 
L 365.079549 269.94708 
L 366.792766 270.587035 
L 367.649374 267.353824 
L 368.505982 270.196987 
L 369.362591 268.925313 
L 370.219199 269.565513 
L 371.075807 270.836927 
L 372.789024 269.801089 
L 373.645632 270.391991 
L 375.358849 269.031094 
L 376.215457 270.61136 
L 377.072065 270.147107 
L 377.928674 266.808176 
L 378.785282 271.105045 
L 379.64189 269.788435 
L 380.498498 269.613507 
L 381.355107 271.238068 
L 382.211715 269.201127 
L 383.068323 268.553725 
L 383.924932 269.523188 
L 384.78154 270.893891 
L 385.638148 271.603353 
L 386.494757 269.895361 
L 387.351365 270.933331 
L 388.207973 268.946323 
L 389.064581 269.307432 
L 389.92119 271.32537 
L 390.777798 271.7181 
L 391.634406 271.659397 
L 392.491015 270.141819 
L 393.347623 272.176722 
L 394.204231 270.207549 
L 395.06084 270.937672 
L 395.917448 270.359142 
L 396.774056 270.760243 
L 397.630664 269.848245 
L 398.487273 271.413263 
L 398.487273 271.413263 
" style="fill:none;stroke:#ff7f0e;stroke-linecap:square;stroke-width:1.5;"/>
   </g>
   <g id="patch_3">
    <path d="M 57.6 307.584 
L 57.6 41.472 
" style="fill:none;stroke:#000000;stroke-linecap:square;stroke-linejoin:miter;stroke-width:0.8;"/>
   </g>
   <g id="patch_4">
    <path d="M 414.72 307.584 
L 414.72 41.472 
" style="fill:none;stroke:#000000;stroke-linecap:square;stroke-linejoin:miter;stroke-width:0.8;"/>
   </g>
   <g id="patch_5">
    <path d="M 57.6 307.584 
L 414.72 307.584 
" style="fill:none;stroke:#000000;stroke-linecap:square;stroke-linejoin:miter;stroke-width:0.8;"/>
   </g>
   <g id="patch_6">
    <path d="M 57.6 41.472 
L 414.72 41.472 
" style="fill:none;stroke:#000000;stroke-linecap:square;stroke-linejoin:miter;stroke-width:0.8;"/>
   </g>
   <g id="text_18">
    <!-- model loss -->
    <defs>
     <path d="M 52 44.1875 
Q 55.375 50.25 60.0625 53.125 
Q 64.75 56 71.09375 56 
Q 79.640625 56 84.28125 50.015625 
Q 88.921875 44.046875 88.921875 33.015625 
L 88.921875 0 
L 79.890625 0 
L 79.890625 32.71875 
Q 79.890625 40.578125 77.09375 44.375 
Q 74.3125 48.1875 68.609375 48.1875 
Q 61.625 48.1875 57.5625 43.546875 
Q 53.515625 38.921875 53.515625 30.90625 
L 53.515625 0 
L 44.484375 0 
L 44.484375 32.71875 
Q 44.484375 40.625 41.703125 44.40625 
Q 38.921875 48.1875 33.109375 48.1875 
Q 26.21875 48.1875 22.15625 43.53125 
Q 18.109375 38.875 18.109375 30.90625 
L 18.109375 0 
L 9.078125 0 
L 9.078125 54.6875 
L 18.109375 54.6875 
L 18.109375 46.1875 
Q 21.1875 51.21875 25.484375 53.609375 
Q 29.78125 56 35.6875 56 
Q 41.65625 56 45.828125 52.96875 
Q 50 49.953125 52 44.1875 
" id="DejaVuSans-6d"/>
     <path d="M 45.40625 46.390625 
L 45.40625 75.984375 
L 54.390625 75.984375 
L 54.390625 0 
L 45.40625 0 
L 45.40625 8.203125 
Q 42.578125 3.328125 38.25 0.953125 
Q 33.9375 -1.421875 27.875 -1.421875 
Q 17.96875 -1.421875 11.734375 6.484375 
Q 5.515625 14.40625 5.515625 27.296875 
Q 5.515625 40.1875 11.734375 48.09375 
Q 17.96875 56 27.875 56 
Q 33.9375 56 38.25 53.625 
Q 42.578125 51.265625 45.40625 46.390625 
M 14.796875 27.296875 
Q 14.796875 17.390625 18.875 11.75 
Q 22.953125 6.109375 30.078125 6.109375 
Q 37.203125 6.109375 41.296875 11.75 
Q 45.40625 17.390625 45.40625 27.296875 
Q 45.40625 37.203125 41.296875 42.84375 
Q 37.203125 48.484375 30.078125 48.484375 
Q 22.953125 48.484375 18.875 42.84375 
Q 14.796875 37.203125 14.796875 27.296875 
" id="DejaVuSans-64"/>
     <path id="DejaVuSans-20"/>
    </defs>
    <g transform="translate(203.980312 35.472)scale(0.12 -0.12)">
     <use xlink:href="#DejaVuSans-6d"/>
     <use x="97.412109" xlink:href="#DejaVuSans-6f"/>
     <use x="158.59375" xlink:href="#DejaVuSans-64"/>
     <use x="222.070312" xlink:href="#DejaVuSans-65"/>
     <use x="283.59375" xlink:href="#DejaVuSans-6c"/>
     <use x="311.376953" xlink:href="#DejaVuSans-20"/>
     <use x="343.164062" xlink:href="#DejaVuSans-6c"/>
     <use x="370.947266" xlink:href="#DejaVuSans-6f"/>
     <use x="432.128906" xlink:href="#DejaVuSans-73"/>
     <use x="484.228516" xlink:href="#DejaVuSans-73"/>
    </g>
   </g>
   <g id="legend_1">
    <g id="patch_7">
     <path d="M 64.6 78.82825 
L 119.875 78.82825 
Q 121.875 78.82825 121.875 76.82825 
L 121.875 48.472 
Q 121.875 46.472 119.875 46.472 
L 64.6 46.472 
Q 62.6 46.472 62.6 48.472 
L 62.6 76.82825 
Q 62.6 78.82825 64.6 78.82825 
z
" style="fill:#ffffff;opacity:0.8;stroke:#cccccc;stroke-linejoin:miter;"/>
    </g>
    <g id="line2d_18">
     <path d="M 66.6 54.570437 
L 86.6 54.570437 
" style="fill:none;stroke:#1f77b4;stroke-linecap:square;stroke-width:1.5;"/>
    </g>
    <g id="line2d_19"/>
    <g id="text_19">
     <!-- train -->
     <defs>
      <path d="M 18.3125 70.21875 
L 18.3125 54.6875 
L 36.8125 54.6875 
L 36.8125 47.703125 
L 18.3125 47.703125 
L 18.3125 18.015625 
Q 18.3125 11.328125 20.140625 9.421875 
Q 21.96875 7.515625 27.59375 7.515625 
L 36.8125 7.515625 
L 36.8125 0 
L 27.59375 0 
Q 17.1875 0 13.234375 3.875 
Q 9.28125 7.765625 9.28125 18.015625 
L 9.28125 47.703125 
L 2.6875 47.703125 
L 2.6875 54.6875 
L 9.28125 54.6875 
L 9.28125 70.21875 
z
" id="DejaVuSans-74"/>
      <path d="M 41.109375 46.296875 
Q 39.59375 47.171875 37.8125 47.578125 
Q 36.03125 48 33.890625 48 
Q 26.265625 48 22.1875 43.046875 
Q 18.109375 38.09375 18.109375 28.8125 
L 18.109375 0 
L 9.078125 0 
L 9.078125 54.6875 
L 18.109375 54.6875 
L 18.109375 46.1875 
Q 20.953125 51.171875 25.484375 53.578125 
Q 30.03125 56 36.53125 56 
Q 37.453125 56 38.578125 55.875 
Q 39.703125 55.765625 41.0625 55.515625 
z
" id="DejaVuSans-72"/>
      <path d="M 34.28125 27.484375 
Q 23.390625 27.484375 19.1875 25 
Q 14.984375 22.515625 14.984375 16.5 
Q 14.984375 11.71875 18.140625 8.90625 
Q 21.296875 6.109375 26.703125 6.109375 
Q 34.1875 6.109375 38.703125 11.40625 
Q 43.21875 16.703125 43.21875 25.484375 
L 43.21875 27.484375 
z
M 52.203125 31.203125 
L 52.203125 0 
L 43.21875 0 
L 43.21875 8.296875 
Q 40.140625 3.328125 35.546875 0.953125 
Q 30.953125 -1.421875 24.3125 -1.421875 
Q 15.921875 -1.421875 10.953125 3.296875 
Q 6 8.015625 6 15.921875 
Q 6 25.140625 12.171875 29.828125 
Q 18.359375 34.515625 30.609375 34.515625 
L 43.21875 34.515625 
L 43.21875 35.40625 
Q 43.21875 41.609375 39.140625 45 
Q 35.0625 48.390625 27.6875 48.390625 
Q 23 48.390625 18.546875 47.265625 
Q 14.109375 46.140625 10.015625 43.890625 
L 10.015625 52.203125 
Q 14.9375 54.109375 19.578125 55.046875 
Q 24.21875 56 28.609375 56 
Q 40.484375 56 46.34375 49.84375 
Q 52.203125 43.703125 52.203125 31.203125 
" id="DejaVuSans-61"/>
      <path d="M 9.421875 54.6875 
L 18.40625 54.6875 
L 18.40625 0 
L 9.421875 0 
z
M 9.421875 75.984375 
L 18.40625 75.984375 
L 18.40625 64.59375 
L 9.421875 64.59375 
z
" id="DejaVuSans-69"/>
      <path d="M 54.890625 33.015625 
L 54.890625 0 
L 45.90625 0 
L 45.90625 32.71875 
Q 45.90625 40.484375 42.875 44.328125 
Q 39.84375 48.1875 33.796875 48.1875 
Q 26.515625 48.1875 22.3125 43.546875 
Q 18.109375 38.921875 18.109375 30.90625 
L 18.109375 0 
L 9.078125 0 
L 9.078125 54.6875 
L 18.109375 54.6875 
L 18.109375 46.1875 
Q 21.34375 51.125 25.703125 53.5625 
Q 30.078125 56 35.796875 56 
Q 45.21875 56 50.046875 50.171875 
Q 54.890625 44.34375 54.890625 33.015625 
" id="DejaVuSans-6e"/>
     </defs>
     <g transform="translate(94.6 58.070437)scale(0.1 -0.1)">
      <use xlink:href="#DejaVuSans-74"/>
      <use x="39.208984" xlink:href="#DejaVuSans-72"/>
      <use x="80.322266" xlink:href="#DejaVuSans-61"/>
      <use x="141.601562" xlink:href="#DejaVuSans-69"/>
      <use x="169.384766" xlink:href="#DejaVuSans-6e"/>
     </g>
    </g>
    <g id="line2d_20">
     <path d="M 66.6 69.248562 
L 86.6 69.248562 
" style="fill:none;stroke:#ff7f0e;stroke-linecap:square;stroke-width:1.5;"/>
    </g>
    <g id="line2d_21"/>
    <g id="text_20">
     <!-- test -->
     <g transform="translate(94.6 72.748562)scale(0.1 -0.1)">
      <use xlink:href="#DejaVuSans-74"/>
      <use x="39.208984" xlink:href="#DejaVuSans-65"/>
      <use x="100.732422" xlink:href="#DejaVuSans-73"/>
      <use x="152.832031" xlink:href="#DejaVuSans-74"/>
     </g>
    </g>
   </g>
  </g>
 </g>
 <defs>
  <clipPath id="p51c5991d1a">
   <rect height="266.112" width="357.12" x="57.6" y="41.472"/>
  </clipPath>
 </defs>
</svg>
