<?xml version="1.0" encoding="utf-8" standalone="no"?>
<!DOCTYPE svg PUBLIC "-//W3C//DTD SVG 1.1//EN"
  "http://www.w3.org/Graphics/SVG/1.1/DTD/svg11.dtd">
<!-- Created with matplotlib (http://matplotlib.org/) -->
<svg height="345pt" version="1.1" viewBox="0 0 460 345" width="460pt" xmlns="http://www.w3.org/2000/svg" xmlns:xlink="http://www.w3.org/1999/xlink">
 <defs>
  <style type="text/css">
*{stroke-linecap:butt;stroke-linejoin:round;}
  </style>
 </defs>
 <g id="figure_1">
  <g id="patch_1">
   <path d="M 0 345.6 
L 460.8 345.6 
L 460.8 0 
L 0 0 
z
" style="fill:#ffffff;"/>
  </g>
  <g id="axes_1">
   <g id="patch_2">
    <path d="M 57.6 307.584 
L 414.72 307.584 
L 414.72 41.472 
L 57.6 41.472 
z
" style="fill:#ffffff;"/>
   </g>
   <g id="matplotlib.axis_1">
    <g id="xtick_1">
     <g id="line2d_1">
      <defs>
       <path d="M 0 0 
L 0 3.5 
" id="mfd31238c96" style="stroke:#000000;stroke-width:0.8;"/>
      </defs>
      <g>
       <use style="stroke:#000000;stroke-width:0.8;" x="73.832727" xlink:href="#mfd31238c96" y="307.584"/>
      </g>
     </g>
     <g id="text_1">
      <!-- 0 -->
      <defs>
       <path d="M 31.78125 66.40625 
Q 24.171875 66.40625 20.328125 58.90625 
Q 16.5 51.421875 16.5 36.375 
Q 16.5 21.390625 20.328125 13.890625 
Q 24.171875 6.390625 31.78125 6.390625 
Q 39.453125 6.390625 43.28125 13.890625 
Q 47.125 21.390625 47.125 36.375 
Q 47.125 51.421875 43.28125 58.90625 
Q 39.453125 66.40625 31.78125 66.40625 
M 31.78125 74.21875 
Q 44.046875 74.21875 50.515625 64.515625 
Q 56.984375 54.828125 56.984375 36.375 
Q 56.984375 17.96875 50.515625 8.265625 
Q 44.046875 -1.421875 31.78125 -1.421875 
Q 19.53125 -1.421875 13.0625 8.265625 
Q 6.59375 17.96875 6.59375 36.375 
Q 6.59375 54.828125 13.0625 64.515625 
Q 19.53125 74.21875 31.78125 74.21875 
" id="DejaVuSans-30"/>
      </defs>
      <g transform="translate(70.651477 322.182437)scale(0.1 -0.1)">
       <use xlink:href="#DejaVuSans-30"/>
      </g>
     </g>
    </g>
    <g id="xtick_2">
     <g id="line2d_2">
      <g>
       <use style="stroke:#000000;stroke-width:0.8;" x="117.823858" xlink:href="#mfd31238c96" y="307.584"/>
      </g>
     </g>
     <g id="text_2">
      <!-- 50 -->
      <defs>
       <path d="M 10.796875 72.90625 
L 49.515625 72.90625 
L 49.515625 64.59375 
L 19.828125 64.59375 
L 19.828125 46.734375 
Q 21.96875 47.46875 24.109375 47.828125 
Q 26.265625 48.1875 28.421875 48.1875 
Q 40.625 48.1875 47.75 41.5 
Q 54.890625 34.8125 54.890625 23.390625 
Q 54.890625 11.625 47.5625 5.09375 
Q 40.234375 -1.421875 26.90625 -1.421875 
Q 22.3125 -1.421875 17.546875 -0.640625 
Q 12.796875 0.140625 7.71875 1.703125 
L 7.71875 11.625 
Q 12.109375 9.234375 16.796875 8.0625 
Q 21.484375 6.890625 26.703125 6.890625 
Q 35.15625 6.890625 40.078125 11.328125 
Q 45.015625 15.765625 45.015625 23.390625 
Q 45.015625 31 40.078125 35.4375 
Q 35.15625 39.890625 26.703125 39.890625 
Q 22.75 39.890625 18.8125 39.015625 
Q 14.890625 38.140625 10.796875 36.28125 
z
" id="DejaVuSans-35"/>
      </defs>
      <g transform="translate(111.461358 322.182437)scale(0.1 -0.1)">
       <use xlink:href="#DejaVuSans-35"/>
       <use x="63.623047" xlink:href="#DejaVuSans-30"/>
      </g>
     </g>
    </g>
    <g id="xtick_3">
     <g id="line2d_3">
      <g>
       <use style="stroke:#000000;stroke-width:0.8;" x="161.814989" xlink:href="#mfd31238c96" y="307.584"/>
      </g>
     </g>
     <g id="text_3">
      <!-- 100 -->
      <defs>
       <path d="M 12.40625 8.296875 
L 28.515625 8.296875 
L 28.515625 63.921875 
L 10.984375 60.40625 
L 10.984375 69.390625 
L 28.421875 72.90625 
L 38.28125 72.90625 
L 38.28125 8.296875 
L 54.390625 8.296875 
L 54.390625 0 
L 12.40625 0 
z
" id="DejaVuSans-31"/>
      </defs>
      <g transform="translate(152.271239 322.182437)scale(0.1 -0.1)">
       <use xlink:href="#DejaVuSans-31"/>
       <use x="63.623047" xlink:href="#DejaVuSans-30"/>
       <use x="127.246094" xlink:href="#DejaVuSans-30"/>
      </g>
     </g>
    </g>
    <g id="xtick_4">
     <g id="line2d_4">
      <g>
       <use style="stroke:#000000;stroke-width:0.8;" x="205.80612" xlink:href="#mfd31238c96" y="307.584"/>
      </g>
     </g>
     <g id="text_4">
      <!-- 150 -->
      <g transform="translate(196.26237 322.182437)scale(0.1 -0.1)">
       <use xlink:href="#DejaVuSans-31"/>
       <use x="63.623047" xlink:href="#DejaVuSans-35"/>
       <use x="127.246094" xlink:href="#DejaVuSans-30"/>
      </g>
     </g>
    </g>
    <g id="xtick_5">
     <g id="line2d_5">
      <g>
       <use style="stroke:#000000;stroke-width:0.8;" x="249.797251" xlink:href="#mfd31238c96" y="307.584"/>
      </g>
     </g>
     <g id="text_5">
      <!-- 200 -->
      <defs>
       <path d="M 19.1875 8.296875 
L 53.609375 8.296875 
L 53.609375 0 
L 7.328125 0 
L 7.328125 8.296875 
Q 12.9375 14.109375 22.625 23.890625 
Q 32.328125 33.6875 34.8125 36.53125 
Q 39.546875 41.84375 41.421875 45.53125 
Q 43.3125 49.21875 43.3125 52.78125 
Q 43.3125 58.59375 39.234375 62.25 
Q 35.15625 65.921875 28.609375 65.921875 
Q 23.96875 65.921875 18.8125 64.3125 
Q 13.671875 62.703125 7.8125 59.421875 
L 7.8125 69.390625 
Q 13.765625 71.78125 18.9375 73 
Q 24.125 74.21875 28.421875 74.21875 
Q 39.75 74.21875 46.484375 68.546875 
Q 53.21875 62.890625 53.21875 53.421875 
Q 53.21875 48.921875 51.53125 44.890625 
Q 49.859375 40.875 45.40625 35.40625 
Q 44.1875 33.984375 37.640625 27.21875 
Q 31.109375 20.453125 19.1875 8.296875 
" id="DejaVuSans-32"/>
      </defs>
      <g transform="translate(240.253501 322.182437)scale(0.1 -0.1)">
       <use xlink:href="#DejaVuSans-32"/>
       <use x="63.623047" xlink:href="#DejaVuSans-30"/>
       <use x="127.246094" xlink:href="#DejaVuSans-30"/>
      </g>
     </g>
    </g>
    <g id="xtick_6">
     <g id="line2d_6">
      <g>
       <use style="stroke:#000000;stroke-width:0.8;" x="293.788381" xlink:href="#mfd31238c96" y="307.584"/>
      </g>
     </g>
     <g id="text_6">
      <!-- 250 -->
      <g transform="translate(284.244631 322.182437)scale(0.1 -0.1)">
       <use xlink:href="#DejaVuSans-32"/>
       <use x="63.623047" xlink:href="#DejaVuSans-35"/>
       <use x="127.246094" xlink:href="#DejaVuSans-30"/>
      </g>
     </g>
    </g>
    <g id="xtick_7">
     <g id="line2d_7">
      <g>
       <use style="stroke:#000000;stroke-width:0.8;" x="337.779512" xlink:href="#mfd31238c96" y="307.584"/>
      </g>
     </g>
     <g id="text_7">
      <!-- 300 -->
      <defs>
       <path d="M 40.578125 39.3125 
Q 47.65625 37.796875 51.625 33 
Q 55.609375 28.21875 55.609375 21.1875 
Q 55.609375 10.40625 48.1875 4.484375 
Q 40.765625 -1.421875 27.09375 -1.421875 
Q 22.515625 -1.421875 17.65625 -0.515625 
Q 12.796875 0.390625 7.625 2.203125 
L 7.625 11.71875 
Q 11.71875 9.328125 16.59375 8.109375 
Q 21.484375 6.890625 26.8125 6.890625 
Q 36.078125 6.890625 40.9375 10.546875 
Q 45.796875 14.203125 45.796875 21.1875 
Q 45.796875 27.640625 41.28125 31.265625 
Q 36.765625 34.90625 28.71875 34.90625 
L 20.21875 34.90625 
L 20.21875 43.015625 
L 29.109375 43.015625 
Q 36.375 43.015625 40.234375 45.921875 
Q 44.09375 48.828125 44.09375 54.296875 
Q 44.09375 59.90625 40.109375 62.90625 
Q 36.140625 65.921875 28.71875 65.921875 
Q 24.65625 65.921875 20.015625 65.03125 
Q 15.375 64.15625 9.8125 62.3125 
L 9.8125 71.09375 
Q 15.4375 72.65625 20.34375 73.4375 
Q 25.25 74.21875 29.59375 74.21875 
Q 40.828125 74.21875 47.359375 69.109375 
Q 53.90625 64.015625 53.90625 55.328125 
Q 53.90625 49.265625 50.4375 45.09375 
Q 46.96875 40.921875 40.578125 39.3125 
" id="DejaVuSans-33"/>
      </defs>
      <g transform="translate(328.235762 322.182437)scale(0.1 -0.1)">
       <use xlink:href="#DejaVuSans-33"/>
       <use x="63.623047" xlink:href="#DejaVuSans-30"/>
       <use x="127.246094" xlink:href="#DejaVuSans-30"/>
      </g>
     </g>
    </g>
    <g id="xtick_8">
     <g id="line2d_8">
      <g>
       <use style="stroke:#000000;stroke-width:0.8;" x="381.770643" xlink:href="#mfd31238c96" y="307.584"/>
      </g>
     </g>
     <g id="text_8">
      <!-- 350 -->
      <g transform="translate(372.226893 322.182437)scale(0.1 -0.1)">
       <use xlink:href="#DejaVuSans-33"/>
       <use x="63.623047" xlink:href="#DejaVuSans-35"/>
       <use x="127.246094" xlink:href="#DejaVuSans-30"/>
      </g>
     </g>
    </g>
    <g id="text_9">
     <!-- epoch -->
     <defs>
      <path d="M 56.203125 29.59375 
L 56.203125 25.203125 
L 14.890625 25.203125 
Q 15.484375 15.921875 20.484375 11.0625 
Q 25.484375 6.203125 34.421875 6.203125 
Q 39.59375 6.203125 44.453125 7.46875 
Q 49.3125 8.734375 54.109375 11.28125 
L 54.109375 2.78125 
Q 49.265625 0.734375 44.1875 -0.34375 
Q 39.109375 -1.421875 33.890625 -1.421875 
Q 20.796875 -1.421875 13.15625 6.1875 
Q 5.515625 13.8125 5.515625 26.8125 
Q 5.515625 40.234375 12.765625 48.109375 
Q 20.015625 56 32.328125 56 
Q 43.359375 56 49.78125 48.890625 
Q 56.203125 41.796875 56.203125 29.59375 
M 47.21875 32.234375 
Q 47.125 39.59375 43.09375 43.984375 
Q 39.0625 48.390625 32.421875 48.390625 
Q 24.90625 48.390625 20.390625 44.140625 
Q 15.875 39.890625 15.1875 32.171875 
z
" id="DejaVuSans-65"/>
      <path d="M 18.109375 8.203125 
L 18.109375 -20.796875 
L 9.078125 -20.796875 
L 9.078125 54.6875 
L 18.109375 54.6875 
L 18.109375 46.390625 
Q 20.953125 51.265625 25.265625 53.625 
Q 29.59375 56 35.59375 56 
Q 45.5625 56 51.78125 48.09375 
Q 58.015625 40.1875 58.015625 27.296875 
Q 58.015625 14.40625 51.78125 6.484375 
Q 45.5625 -1.421875 35.59375 -1.421875 
Q 29.59375 -1.421875 25.265625 0.953125 
Q 20.953125 3.328125 18.109375 8.203125 
M 48.6875 27.296875 
Q 48.6875 37.203125 44.609375 42.84375 
Q 40.53125 48.484375 33.40625 48.484375 
Q 26.265625 48.484375 22.1875 42.84375 
Q 18.109375 37.203125 18.109375 27.296875 
Q 18.109375 17.390625 22.1875 11.75 
Q 26.265625 6.109375 33.40625 6.109375 
Q 40.53125 6.109375 44.609375 11.75 
Q 48.6875 17.390625 48.6875 27.296875 
" id="DejaVuSans-70"/>
      <path d="M 30.609375 48.390625 
Q 23.390625 48.390625 19.1875 42.75 
Q 14.984375 37.109375 14.984375 27.296875 
Q 14.984375 17.484375 19.15625 11.84375 
Q 23.34375 6.203125 30.609375 6.203125 
Q 37.796875 6.203125 41.984375 11.859375 
Q 46.1875 17.53125 46.1875 27.296875 
Q 46.1875 37.015625 41.984375 42.703125 
Q 37.796875 48.390625 30.609375 48.390625 
M 30.609375 56 
Q 42.328125 56 49.015625 48.375 
Q 55.71875 40.765625 55.71875 27.296875 
Q 55.71875 13.875 49.015625 6.21875 
Q 42.328125 -1.421875 30.609375 -1.421875 
Q 18.84375 -1.421875 12.171875 6.21875 
Q 5.515625 13.875 5.515625 27.296875 
Q 5.515625 40.765625 12.171875 48.375 
Q 18.84375 56 30.609375 56 
" id="DejaVuSans-6f"/>
      <path d="M 48.78125 52.59375 
L 48.78125 44.1875 
Q 44.96875 46.296875 41.140625 47.34375 
Q 37.3125 48.390625 33.40625 48.390625 
Q 24.65625 48.390625 19.8125 42.84375 
Q 14.984375 37.3125 14.984375 27.296875 
Q 14.984375 17.28125 19.8125 11.734375 
Q 24.65625 6.203125 33.40625 6.203125 
Q 37.3125 6.203125 41.140625 7.25 
Q 44.96875 8.296875 48.78125 10.40625 
L 48.78125 2.09375 
Q 45.015625 0.34375 40.984375 -0.53125 
Q 36.96875 -1.421875 32.421875 -1.421875 
Q 20.0625 -1.421875 12.78125 6.34375 
Q 5.515625 14.109375 5.515625 27.296875 
Q 5.515625 40.671875 12.859375 48.328125 
Q 20.21875 56 33.015625 56 
Q 37.15625 56 41.109375 55.140625 
Q 45.0625 54.296875 48.78125 52.59375 
" id="DejaVuSans-63"/>
      <path d="M 54.890625 33.015625 
L 54.890625 0 
L 45.90625 0 
L 45.90625 32.71875 
Q 45.90625 40.484375 42.875 44.328125 
Q 39.84375 48.1875 33.796875 48.1875 
Q 26.515625 48.1875 22.3125 43.546875 
Q 18.109375 38.921875 18.109375 30.90625 
L 18.109375 0 
L 9.078125 0 
L 9.078125 75.984375 
L 18.109375 75.984375 
L 18.109375 46.1875 
Q 21.34375 51.125 25.703125 53.5625 
Q 30.078125 56 35.796875 56 
Q 45.21875 56 50.046875 50.171875 
Q 54.890625 44.34375 54.890625 33.015625 
" id="DejaVuSans-68"/>
     </defs>
     <g transform="translate(220.931875 335.860562)scale(0.1 -0.1)">
      <use xlink:href="#DejaVuSans-65"/>
      <use x="61.523438" xlink:href="#DejaVuSans-70"/>
      <use x="125" xlink:href="#DejaVuSans-6f"/>
      <use x="186.181641" xlink:href="#DejaVuSans-63"/>
      <use x="241.162109" xlink:href="#DejaVuSans-68"/>
     </g>
    </g>
   </g>
   <g id="matplotlib.axis_2">
    <g id="ytick_1">
     <g id="line2d_9">
      <defs>
       <path d="M 0 0 
L -3.5 0 
" id="m195f7797d0" style="stroke:#000000;stroke-width:0.8;"/>
      </defs>
      <g>
       <use style="stroke:#000000;stroke-width:0.8;" x="57.6" xlink:href="#m195f7797d0" y="296.474478"/>
      </g>
     </g>
     <g id="text_10">
      <!-- 0.005 -->
      <defs>
       <path d="M 10.6875 12.40625 
L 21 12.40625 
L 21 0 
L 10.6875 0 
z
" id="DejaVuSans-2e"/>
      </defs>
      <g transform="translate(21.971875 300.273697)scale(0.1 -0.1)">
       <use xlink:href="#DejaVuSans-30"/>
       <use x="63.623047" xlink:href="#DejaVuSans-2e"/>
       <use x="95.410156" xlink:href="#DejaVuSans-30"/>
       <use x="159.033203" xlink:href="#DejaVuSans-30"/>
       <use x="222.65625" xlink:href="#DejaVuSans-35"/>
      </g>
     </g>
    </g>
    <g id="ytick_2">
     <g id="line2d_10">
      <g>
       <use style="stroke:#000000;stroke-width:0.8;" x="57.6" xlink:href="#m195f7797d0" y="254.728696"/>
      </g>
     </g>
     <g id="text_11">
      <!-- 0.010 -->
      <g transform="translate(21.971875 258.527915)scale(0.1 -0.1)">
       <use xlink:href="#DejaVuSans-30"/>
       <use x="63.623047" xlink:href="#DejaVuSans-2e"/>
       <use x="95.410156" xlink:href="#DejaVuSans-30"/>
       <use x="159.033203" xlink:href="#DejaVuSans-31"/>
       <use x="222.65625" xlink:href="#DejaVuSans-30"/>
      </g>
     </g>
    </g>
    <g id="ytick_3">
     <g id="line2d_11">
      <g>
       <use style="stroke:#000000;stroke-width:0.8;" x="57.6" xlink:href="#m195f7797d0" y="212.982914"/>
      </g>
     </g>
     <g id="text_12">
      <!-- 0.015 -->
      <g transform="translate(21.971875 216.782133)scale(0.1 -0.1)">
       <use xlink:href="#DejaVuSans-30"/>
       <use x="63.623047" xlink:href="#DejaVuSans-2e"/>
       <use x="95.410156" xlink:href="#DejaVuSans-30"/>
       <use x="159.033203" xlink:href="#DejaVuSans-31"/>
       <use x="222.65625" xlink:href="#DejaVuSans-35"/>
      </g>
     </g>
    </g>
    <g id="ytick_4">
     <g id="line2d_12">
      <g>
       <use style="stroke:#000000;stroke-width:0.8;" x="57.6" xlink:href="#m195f7797d0" y="171.237133"/>
      </g>
     </g>
     <g id="text_13">
      <!-- 0.020 -->
      <g transform="translate(21.971875 175.036351)scale(0.1 -0.1)">
       <use xlink:href="#DejaVuSans-30"/>
       <use x="63.623047" xlink:href="#DejaVuSans-2e"/>
       <use x="95.410156" xlink:href="#DejaVuSans-30"/>
       <use x="159.033203" xlink:href="#DejaVuSans-32"/>
       <use x="222.65625" xlink:href="#DejaVuSans-30"/>
      </g>
     </g>
    </g>
    <g id="ytick_5">
     <g id="line2d_13">
      <g>
       <use style="stroke:#000000;stroke-width:0.8;" x="57.6" xlink:href="#m195f7797d0" y="129.491351"/>
      </g>
     </g>
     <g id="text_14">
      <!-- 0.025 -->
      <g transform="translate(21.971875 133.29057)scale(0.1 -0.1)">
       <use xlink:href="#DejaVuSans-30"/>
       <use x="63.623047" xlink:href="#DejaVuSans-2e"/>
       <use x="95.410156" xlink:href="#DejaVuSans-30"/>
       <use x="159.033203" xlink:href="#DejaVuSans-32"/>
       <use x="222.65625" xlink:href="#DejaVuSans-35"/>
      </g>
     </g>
    </g>
    <g id="ytick_6">
     <g id="line2d_14">
      <g>
       <use style="stroke:#000000;stroke-width:0.8;" x="57.6" xlink:href="#m195f7797d0" y="87.745569"/>
      </g>
     </g>
     <g id="text_15">
      <!-- 0.030 -->
      <g transform="translate(21.971875 91.544788)scale(0.1 -0.1)">
       <use xlink:href="#DejaVuSans-30"/>
       <use x="63.623047" xlink:href="#DejaVuSans-2e"/>
       <use x="95.410156" xlink:href="#DejaVuSans-30"/>
       <use x="159.033203" xlink:href="#DejaVuSans-33"/>
       <use x="222.65625" xlink:href="#DejaVuSans-30"/>
      </g>
     </g>
    </g>
    <g id="ytick_7">
     <g id="line2d_15">
      <g>
       <use style="stroke:#000000;stroke-width:0.8;" x="57.6" xlink:href="#m195f7797d0" y="45.999787"/>
      </g>
     </g>
     <g id="text_16">
      <!-- 0.035 -->
      <g transform="translate(21.971875 49.799006)scale(0.1 -0.1)">
       <use xlink:href="#DejaVuSans-30"/>
       <use x="63.623047" xlink:href="#DejaVuSans-2e"/>
       <use x="95.410156" xlink:href="#DejaVuSans-30"/>
       <use x="159.033203" xlink:href="#DejaVuSans-33"/>
       <use x="222.65625" xlink:href="#DejaVuSans-35"/>
      </g>
     </g>
    </g>
    <g id="text_17">
     <!-- loss -->
     <defs>
      <path d="M 9.421875 75.984375 
L 18.40625 75.984375 
L 18.40625 0 
L 9.421875 0 
z
" id="DejaVuSans-6c"/>
      <path d="M 44.28125 53.078125 
L 44.28125 44.578125 
Q 40.484375 46.53125 36.375 47.5 
Q 32.28125 48.484375 27.875 48.484375 
Q 21.1875 48.484375 17.84375 46.4375 
Q 14.5 44.390625 14.5 40.28125 
Q 14.5 37.15625 16.890625 35.375 
Q 19.28125 33.59375 26.515625 31.984375 
L 29.59375 31.296875 
Q 39.15625 29.25 43.1875 25.515625 
Q 47.21875 21.78125 47.21875 15.09375 
Q 47.21875 7.46875 41.1875 3.015625 
Q 35.15625 -1.421875 24.609375 -1.421875 
Q 20.21875 -1.421875 15.453125 -0.5625 
Q 10.6875 0.296875 5.421875 2 
L 5.421875 11.28125 
Q 10.40625 8.6875 15.234375 7.390625 
Q 20.0625 6.109375 24.8125 6.109375 
Q 31.15625 6.109375 34.5625 8.28125 
Q 37.984375 10.453125 37.984375 14.40625 
Q 37.984375 18.0625 35.515625 20.015625 
Q 33.0625 21.96875 24.703125 23.78125 
L 21.578125 24.515625 
Q 13.234375 26.265625 9.515625 29.90625 
Q 5.8125 33.546875 5.8125 39.890625 
Q 5.8125 47.609375 11.28125 51.796875 
Q 16.75 56 26.8125 56 
Q 31.78125 56 36.171875 55.265625 
Q 40.578125 54.546875 44.28125 53.078125 
" id="DejaVuSans-73"/>
     </defs>
     <g transform="translate(15.892188 184.185812)rotate(-90)scale(0.1 -0.1)">
      <use xlink:href="#DejaVuSans-6c"/>
      <use x="27.783203" xlink:href="#DejaVuSans-6f"/>
      <use x="88.964844" xlink:href="#DejaVuSans-73"/>
      <use x="141.064453" xlink:href="#DejaVuSans-73"/>
     </g>
    </g>
   </g>
   <g id="line2d_16">
    <path clip-path="url(#p8f5cf9cbca)" d="M 73.832727 53.568 
L 74.71255 93.103882 
L 75.592373 113.999813 
L 76.472195 128.113961 
L 78.23184 149.756933 
L 79.991486 165.036094 
L 81.751131 176.699619 
L 82.630953 181.977139 
L 84.390599 189.89293 
L 86.150244 197.22897 
L 87.909889 203.33195 
L 88.789712 206.132348 
L 89.669534 208.278787 
L 90.549357 211.171936 
L 91.42918 213.172813 
L 92.309002 215.508119 
L 94.068647 219.208205 
L 95.828293 222.579613 
L 96.708115 224.496278 
L 97.587938 225.921404 
L 98.467761 226.975643 
L 99.347583 229.020904 
L 100.227406 229.902344 
L 101.107228 231.419237 
L 105.506341 237.078484 
L 107.265987 239.161456 
L 109.905455 241.851548 
L 110.785277 242.508237 
L 113.424745 245.151183 
L 121.343149 250.714357 
L 122.222971 251.562147 
L 123.102794 251.865885 
L 128.381729 255.128962 
L 129.261552 255.413119 
L 131.90102 256.884594 
L 137.179956 259.271836 
L 138.059778 259.742601 
L 141.579069 261.129068 
L 142.458891 261.612914 
L 147.737827 263.640978 
L 149.497472 264.209537 
L 151.257118 264.978055 
L 152.13694 265.01851 
L 153.896585 265.703185 
L 154.776408 266.078799 
L 155.656231 266.080941 
L 157.415876 266.955533 
L 160.055344 267.681365 
L 164.454457 268.985159 
L 165.334279 269.028625 
L 166.214102 269.302836 
L 167.093925 269.724085 
L 168.85357 270.085541 
L 169.733392 270.342832 
L 170.613215 270.720354 
L 171.493038 270.696882 
L 173.252683 271.341499 
L 175.012328 271.719703 
L 180.291264 272.994925 
L 181.171086 273.067437 
L 182.930732 273.709047 
L 183.810554 273.668133 
L 185.5702 274.17796 
L 187.329845 274.544721 
L 188.209667 274.601199 
L 189.08949 274.83475 
L 189.969313 275.234906 
L 190.849135 275.127611 
L 191.728958 275.433075 
L 195.248248 276.212103 
L 196.128071 276.463713 
L 197.007894 276.380853 
L 198.767539 276.856218 
L 199.647361 277.017208 
L 200.527184 277.047491 
L 202.286829 277.645272 
L 203.166652 277.61722 
L 211.964878 279.178273 
L 212.844701 279.398801 
L 213.724523 279.369538 
L 216.363991 279.825804 
L 217.243814 280.158151 
L 218.123636 280.082898 
L 223.402572 280.880181 
L 224.282395 280.906499 
L 225.162217 281.131422 
L 226.04204 281.174069 
L 227.801685 281.530533 
L 228.681508 281.584784 
L 229.56133 281.756036 
L 232.200798 282.005877 
L 233.080621 282.232542 
L 238.359557 282.889855 
L 240.119202 283.22209 
L 240.999024 283.165318 
L 241.878847 283.281502 
L 242.75867 283.583814 
L 243.638492 283.474699 
L 244.518315 283.706423 
L 245.398137 283.663708 
L 246.27796 283.994676 
L 247.157783 283.894939 
L 248.917428 284.28234 
L 252.436718 284.553766 
L 254.196364 284.834214 
L 255.956009 284.959574 
L 256.835831 285.058228 
L 257.715654 285.37539 
L 258.595477 285.273687 
L 259.475299 285.472132 
L 260.355122 285.395157 
L 264.754235 286.025256 
L 275.312106 286.958642 
L 277.951574 287.195114 
L 278.831397 287.212123 
L 279.71122 287.480102 
L 281.470865 287.456124 
L 282.350687 287.72309 
L 284.990155 287.838667 
L 285.869978 287.867003 
L 287.629623 288.106735 
L 288.509446 288.177363 
L 290.269091 288.163 
L 291.148914 288.418066 
L 292.028736 288.339147 
L 292.908559 288.514682 
L 294.668204 288.590509 
L 296.427849 288.86578 
L 299.067317 288.912556 
L 299.94714 289.13849 
L 301.706785 289.14821 
L 302.586608 289.333857 
L 304.346253 289.416273 
L 305.226075 289.559207 
L 306.985721 289.550478 
L 307.865543 289.860873 
L 308.745366 289.713931 
L 318.423415 290.505892 
L 319.303237 290.523781 
L 320.18306 290.655492 
L 321.062882 290.536639 
L 321.942705 290.799279 
L 322.822528 290.908902 
L 323.70235 290.846325 
L 324.582173 290.948604 
L 326.341818 291.0005 
L 327.221641 291.219524 
L 328.101463 291.119843 
L 329.861109 291.336403 
L 333.380399 291.635421 
L 334.260222 291.542724 
L 335.140044 291.594848 
L 336.019867 291.758384 
L 336.89969 291.701263 
L 337.779512 291.918739 
L 339.539157 291.961431 
L 340.41898 292.130083 
L 341.298803 292.031308 
L 342.178625 292.194534 
L 343.058448 292.079204 
L 345.697916 292.41304 
L 346.577738 292.526552 
L 347.457561 292.442036 
L 349.217206 292.619703 
L 350.097029 292.557239 
L 350.976851 292.840473 
L 351.856674 292.690239 
L 352.736497 292.800405 
L 353.616319 292.74387 
L 355.375965 292.94975 
L 358.015432 293.219467 
L 358.895255 293.097056 
L 359.775078 293.136765 
L 360.6549 293.373789 
L 363.294368 293.463799 
L 365.933836 293.531432 
L 367.693481 293.675286 
L 379.131175 294.461842 
L 380.89082 294.453314 
L 382.650466 294.701229 
L 383.530288 294.639206 
L 387.049579 294.904627 
L 388.809224 294.930315 
L 391.448692 295.103275 
L 397.60745 295.391037 
L 398.487273 295.488 
L 398.487273 295.488 
" style="fill:none;stroke:#1f77b4;stroke-linecap:square;stroke-width:1.5;"/>
   </g>
   <g id="line2d_17">
    <path clip-path="url(#p8f5cf9cbca)" d="M 73.832727 72.588503 
L 74.71255 100.759774 
L 76.472195 133.727662 
L 77.352018 139.825432 
L 78.23184 152.482704 
L 79.111663 160.972456 
L 79.991486 165.520301 
L 80.871308 170.964766 
L 81.751131 178.624742 
L 84.390599 191.110155 
L 85.270421 194.158883 
L 86.150244 198.605652 
L 87.030067 200.240343 
L 87.909889 203.099775 
L 88.789712 202.012615 
L 89.669534 206.555391 
L 90.549357 210.195696 
L 91.42918 211.401879 
L 92.309002 212.8368 
L 93.188825 214.995218 
L 94.068647 217.602408 
L 94.94847 218.66733 
L 95.828293 220.568328 
L 96.708115 221.848253 
L 97.587938 219.930951 
L 98.467761 224.391118 
L 99.347583 225.437293 
L 100.227406 225.401326 
L 101.107228 226.773325 
L 101.987051 229.548585 
L 102.866874 228.720734 
L 103.746696 229.856662 
L 104.626519 231.257446 
L 105.506341 232.266042 
L 106.386164 233.503606 
L 107.265987 233.357588 
L 108.145809 233.54626 
L 109.025632 235.797429 
L 110.785277 236.234942 
L 111.6651 235.92889 
L 112.544922 236.440915 
L 113.424745 238.33239 
L 114.304568 238.237428 
L 115.18439 238.262795 
L 116.064213 237.766453 
L 116.944035 240.367241 
L 117.823858 239.458813 
L 118.703681 240.933256 
L 119.583503 241.070158 
L 120.463326 240.634369 
L 121.343149 242.859034 
L 122.222971 241.618752 
L 123.102794 243.84586 
L 124.862439 243.703693 
L 125.742262 244.019781 
L 126.622084 244.651637 
L 127.501907 245.050388 
L 128.381729 244.374717 
L 130.141375 246.471586 
L 131.021197 245.407875 
L 131.90102 246.367295 
L 132.780843 244.733145 
L 133.660665 245.762317 
L 134.540488 247.577118 
L 135.42031 247.399479 
L 136.300133 248.471949 
L 137.179956 246.38107 
L 138.059778 246.820658 
L 138.939601 248.887237 
L 139.819424 248.115274 
L 140.699246 249.868373 
L 141.579069 249.404336 
L 142.458891 249.935945 
L 143.338714 248.153557 
L 144.218537 250.260105 
L 145.098359 251.333286 
L 145.978182 251.223093 
L 146.858004 250.35521 
L 147.737827 251.194389 
L 148.61765 251.013231 
L 149.497472 252.508792 
L 150.377295 252.530184 
L 151.257118 252.254171 
L 152.13694 252.867391 
L 153.016763 252.822286 
L 153.896585 253.188765 
L 154.776408 254.019848 
L 155.656231 252.672726 
L 156.536053 254.344803 
L 157.415876 254.565761 
L 158.295698 255.421063 
L 159.175521 254.244607 
L 160.055344 255.301576 
L 161.814989 253.638164 
L 162.694812 255.227033 
L 163.574634 255.52333 
L 164.454457 254.757911 
L 165.334279 256.897972 
L 166.214102 256.102865 
L 167.093925 256.809673 
L 167.973747 254.754547 
L 168.85357 256.661246 
L 169.733392 256.056188 
L 170.613215 257.137408 
L 171.493038 257.687686 
L 172.37286 257.489891 
L 173.252683 256.932887 
L 174.132506 258.679542 
L 175.012328 256.669567 
L 175.892151 257.149783 
L 176.771973 259.382945 
L 177.651796 259.000129 
L 178.531619 258.440525 
L 180.291264 259.417411 
L 181.171086 259.086205 
L 182.050909 259.959455 
L 182.930732 256.730454 
L 183.810554 259.941015 
L 184.690377 259.35682 
L 185.5702 260.150511 
L 186.450022 260.155514 
L 187.329845 258.183146 
L 188.209667 260.128464 
L 189.08949 259.932636 
L 189.969313 259.88909 
L 190.849135 260.954887 
L 191.728958 259.080112 
L 192.60878 260.826726 
L 193.488603 261.137706 
L 194.368426 261.29705 
L 195.248248 260.287874 
L 197.007894 262.257922 
L 197.887716 262.461794 
L 198.767539 262.124766 
L 199.647361 262.473677 
L 200.527184 263.205623 
L 201.407007 262.210741 
L 202.286829 261.442978 
L 203.166652 263.68096 
L 204.046475 263.125095 
L 204.926297 263.615987 
L 205.80612 262.563066 
L 206.685942 263.70423 
L 207.565765 263.479768 
L 208.445588 264.167121 
L 209.32541 262.771046 
L 210.205233 264.555362 
L 211.085055 262.632463 
L 211.964878 262.808551 
L 212.844701 264.975879 
L 213.724523 264.813458 
L 214.604346 265.162038 
L 215.484169 265.164905 
L 216.363991 265.33317 
L 217.243814 262.834832 
L 218.123636 265.497211 
L 219.003459 264.200718 
L 219.883282 266.184555 
L 220.763104 265.668984 
L 221.642927 264.643487 
L 222.522749 266.526346 
L 223.402572 265.734213 
L 224.282395 265.956743 
L 225.162217 265.281464 
L 226.04204 266.847298 
L 226.921863 266.837752 
L 227.801685 266.391467 
L 228.681508 264.852338 
L 229.56133 266.354028 
L 230.441153 263.102314 
L 231.320976 266.017829 
L 232.200798 266.903909 
L 233.080621 265.495329 
L 233.960443 267.890761 
L 234.840266 267.826754 
L 235.720089 263.95336 
L 236.599911 267.522427 
L 237.479734 266.966173 
L 238.359557 267.851348 
L 239.239379 267.073254 
L 240.119202 267.262007 
L 240.999024 267.800643 
L 241.878847 267.392553 
L 242.75867 266.835259 
L 243.638492 268.557764 
L 244.518315 268.446328 
L 245.398137 267.907386 
L 246.27796 268.557118 
L 248.037605 268.209614 
L 248.917428 269.410954 
L 249.797251 267.42754 
L 250.677073 269.220374 
L 251.556896 266.33987 
L 252.436718 268.890328 
L 253.316541 269.083926 
L 254.196364 268.824983 
L 255.076186 269.17766 
L 255.956009 266.896662 
L 256.835831 269.465499 
L 257.715654 268.646427 
L 258.595477 268.601213 
L 259.475299 269.394386 
L 260.355122 268.927461 
L 261.234945 269.351916 
L 262.114767 268.905664 
L 262.99459 268.855669 
L 263.874412 269.097504 
L 264.754235 269.823927 
L 266.51388 270.133418 
L 267.393703 269.775598 
L 268.273525 269.605995 
L 269.153348 268.906452 
L 270.033171 268.869235 
L 271.792816 270.370979 
L 272.672639 270.270118 
L 273.552461 270.648743 
L 274.432284 270.369249 
L 275.312106 270.213557 
L 276.191929 270.619719 
L 277.071752 269.03466 
L 277.951574 269.075371 
L 278.831397 270.44159 
L 279.71122 270.578892 
L 280.591042 270.158345 
L 281.470865 270.32722 
L 282.350687 270.091147 
L 283.23051 270.81415 
L 284.110333 270.912557 
L 284.990155 269.681347 
L 285.869978 271.361078 
L 286.7498 269.580268 
L 287.629623 268.883212 
L 288.509446 271.102077 
L 289.389268 268.430377 
L 290.269091 271.576736 
L 291.148914 271.511795 
L 292.028736 271.303421 
L 292.908559 271.594357 
L 293.788381 270.968529 
L 294.668204 271.39059 
L 295.548027 270.871345 
L 296.427849 271.778805 
L 297.307672 270.924806 
L 298.187494 270.838647 
L 299.067317 271.954609 
L 299.94714 271.375915 
L 300.826962 272.039486 
L 301.706785 272.351594 
L 302.586608 272.02419 
L 303.46643 272.116289 
L 304.346253 271.101872 
L 305.226075 271.395981 
L 306.985721 272.655523 
L 307.865543 271.365555 
L 308.745366 272.09362 
L 309.625188 271.591418 
L 310.505011 271.432059 
L 311.384834 272.477696 
L 312.264656 272.582289 
L 313.144479 271.176396 
L 314.024302 272.458343 
L 314.904124 272.097134 
L 315.783947 271.943357 
L 316.663769 272.341409 
L 317.543592 272.116277 
L 318.423415 272.592575 
L 319.303237 272.816308 
L 320.18306 272.773486 
L 321.062882 271.351069 
L 321.942705 273.183023 
L 322.822528 272.041104 
L 323.70235 272.835564 
L 324.582173 271.98991 
L 325.461996 271.757077 
L 326.341818 272.974806 
L 327.221641 273.409536 
L 328.101463 272.246097 
L 328.981286 273.48011 
L 329.861109 273.032477 
L 330.740931 272.956487 
L 332.500576 272.178489 
L 333.380399 273.574928 
L 334.260222 271.198166 
L 335.140044 272.607603 
L 336.89969 272.870262 
L 337.779512 272.196392 
L 338.659335 273.056819 
L 340.41898 271.873753 
L 341.298803 272.650393 
L 342.178625 272.851561 
L 343.058448 272.317283 
L 343.938271 272.488069 
L 344.818093 273.134001 
L 345.697916 273.241629 
L 346.577738 271.401096 
L 347.457561 272.780282 
L 348.337384 273.205896 
L 349.217206 273.459459 
L 350.097029 273.036525 
L 350.976851 273.333986 
L 351.856674 271.044317 
L 352.736497 272.97734 
L 353.616319 273.236106 
L 354.496142 271.967739 
L 355.375965 274.026705 
L 356.255787 273.225298 
L 357.13561 272.980958 
L 358.015432 273.451677 
L 358.895255 273.730202 
L 359.775078 272.78131 
L 360.6549 273.949362 
L 361.534723 272.975936 
L 362.414545 273.141703 
L 363.294368 272.659772 
L 364.174191 273.487737 
L 365.054013 274.016574 
L 366.813659 273.534174 
L 367.693481 273.632943 
L 368.573304 274.394398 
L 370.332949 274.456681 
L 371.212772 274.111266 
L 372.092594 274.595015 
L 372.972417 274.014915 
L 373.852239 273.951699 
L 374.732062 272.390638 
L 375.611885 274.336636 
L 376.491707 273.90411 
L 377.37153 274.700015 
L 378.251353 274.17829 
L 379.131175 274.407639 
L 380.010998 273.88578 
L 380.89082 274.40648 
L 382.650466 273.739046 
L 383.530288 274.388489 
L 384.410111 274.136862 
L 385.289933 274.273432 
L 386.169756 274.86013 
L 387.049579 274.036105 
L 387.929401 273.912567 
L 388.809224 274.323783 
L 389.689047 275.230312 
L 390.568869 273.969889 
L 391.448692 274.740302 
L 393.208337 274.213253 
L 394.08816 274.530571 
L 394.967982 275.025112 
L 395.847805 274.75698 
L 396.727627 275.294382 
L 397.60745 274.057223 
L 398.487273 272.473701 
L 398.487273 272.473701 
" style="fill:none;stroke:#ff7f0e;stroke-linecap:square;stroke-width:1.5;"/>
   </g>
   <g id="patch_3">
    <path d="M 57.6 307.584 
L 57.6 41.472 
" style="fill:none;stroke:#000000;stroke-linecap:square;stroke-linejoin:miter;stroke-width:0.8;"/>
   </g>
   <g id="patch_4">
    <path d="M 414.72 307.584 
L 414.72 41.472 
" style="fill:none;stroke:#000000;stroke-linecap:square;stroke-linejoin:miter;stroke-width:0.8;"/>
   </g>
   <g id="patch_5">
    <path d="M 57.6 307.584 
L 414.72 307.584 
" style="fill:none;stroke:#000000;stroke-linecap:square;stroke-linejoin:miter;stroke-width:0.8;"/>
   </g>
   <g id="patch_6">
    <path d="M 57.6 41.472 
L 414.72 41.472 
" style="fill:none;stroke:#000000;stroke-linecap:square;stroke-linejoin:miter;stroke-width:0.8;"/>
   </g>
   <g id="text_18">
    <!-- model loss -->
    <defs>
     <path d="M 52 44.1875 
Q 55.375 50.25 60.0625 53.125 
Q 64.75 56 71.09375 56 
Q 79.640625 56 84.28125 50.015625 
Q 88.921875 44.046875 88.921875 33.015625 
L 88.921875 0 
L 79.890625 0 
L 79.890625 32.71875 
Q 79.890625 40.578125 77.09375 44.375 
Q 74.3125 48.1875 68.609375 48.1875 
Q 61.625 48.1875 57.5625 43.546875 
Q 53.515625 38.921875 53.515625 30.90625 
L 53.515625 0 
L 44.484375 0 
L 44.484375 32.71875 
Q 44.484375 40.625 41.703125 44.40625 
Q 38.921875 48.1875 33.109375 48.1875 
Q 26.21875 48.1875 22.15625 43.53125 
Q 18.109375 38.875 18.109375 30.90625 
L 18.109375 0 
L 9.078125 0 
L 9.078125 54.6875 
L 18.109375 54.6875 
L 18.109375 46.1875 
Q 21.1875 51.21875 25.484375 53.609375 
Q 29.78125 56 35.6875 56 
Q 41.65625 56 45.828125 52.96875 
Q 50 49.953125 52 44.1875 
" id="DejaVuSans-6d"/>
     <path d="M 45.40625 46.390625 
L 45.40625 75.984375 
L 54.390625 75.984375 
L 54.390625 0 
L 45.40625 0 
L 45.40625 8.203125 
Q 42.578125 3.328125 38.25 0.953125 
Q 33.9375 -1.421875 27.875 -1.421875 
Q 17.96875 -1.421875 11.734375 6.484375 
Q 5.515625 14.40625 5.515625 27.296875 
Q 5.515625 40.1875 11.734375 48.09375 
Q 17.96875 56 27.875 56 
Q 33.9375 56 38.25 53.625 
Q 42.578125 51.265625 45.40625 46.390625 
M 14.796875 27.296875 
Q 14.796875 17.390625 18.875 11.75 
Q 22.953125 6.109375 30.078125 6.109375 
Q 37.203125 6.109375 41.296875 11.75 
Q 45.40625 17.390625 45.40625 27.296875 
Q 45.40625 37.203125 41.296875 42.84375 
Q 37.203125 48.484375 30.078125 48.484375 
Q 22.953125 48.484375 18.875 42.84375 
Q 14.796875 37.203125 14.796875 27.296875 
" id="DejaVuSans-64"/>
     <path id="DejaVuSans-20"/>
    </defs>
    <g transform="translate(203.980312 35.472)scale(0.12 -0.12)">
     <use xlink:href="#DejaVuSans-6d"/>
     <use x="97.412109" xlink:href="#DejaVuSans-6f"/>
     <use x="158.59375" xlink:href="#DejaVuSans-64"/>
     <use x="222.070312" xlink:href="#DejaVuSans-65"/>
     <use x="283.59375" xlink:href="#DejaVuSans-6c"/>
     <use x="311.376953" xlink:href="#DejaVuSans-20"/>
     <use x="343.164062" xlink:href="#DejaVuSans-6c"/>
     <use x="370.947266" xlink:href="#DejaVuSans-6f"/>
     <use x="432.128906" xlink:href="#DejaVuSans-73"/>
     <use x="484.228516" xlink:href="#DejaVuSans-73"/>
    </g>
   </g>
   <g id="legend_1">
    <g id="patch_7">
     <path d="M 64.6 78.82825 
L 119.875 78.82825 
Q 121.875 78.82825 121.875 76.82825 
L 121.875 48.472 
Q 121.875 46.472 119.875 46.472 
L 64.6 46.472 
Q 62.6 46.472 62.6 48.472 
L 62.6 76.82825 
Q 62.6 78.82825 64.6 78.82825 
z
" style="fill:#ffffff;opacity:0.8;stroke:#cccccc;stroke-linejoin:miter;"/>
    </g>
    <g id="line2d_18">
     <path d="M 66.6 54.570437 
L 86.6 54.570437 
" style="fill:none;stroke:#1f77b4;stroke-linecap:square;stroke-width:1.5;"/>
    </g>
    <g id="line2d_19"/>
    <g id="text_19">
     <!-- train -->
     <defs>
      <path d="M 18.3125 70.21875 
L 18.3125 54.6875 
L 36.8125 54.6875 
L 36.8125 47.703125 
L 18.3125 47.703125 
L 18.3125 18.015625 
Q 18.3125 11.328125 20.140625 9.421875 
Q 21.96875 7.515625 27.59375 7.515625 
L 36.8125 7.515625 
L 36.8125 0 
L 27.59375 0 
Q 17.1875 0 13.234375 3.875 
Q 9.28125 7.765625 9.28125 18.015625 
L 9.28125 47.703125 
L 2.6875 47.703125 
L 2.6875 54.6875 
L 9.28125 54.6875 
L 9.28125 70.21875 
z
" id="DejaVuSans-74"/>
      <path d="M 41.109375 46.296875 
Q 39.59375 47.171875 37.8125 47.578125 
Q 36.03125 48 33.890625 48 
Q 26.265625 48 22.1875 43.046875 
Q 18.109375 38.09375 18.109375 28.8125 
L 18.109375 0 
L 9.078125 0 
L 9.078125 54.6875 
L 18.109375 54.6875 
L 18.109375 46.1875 
Q 20.953125 51.171875 25.484375 53.578125 
Q 30.03125 56 36.53125 56 
Q 37.453125 56 38.578125 55.875 
Q 39.703125 55.765625 41.0625 55.515625 
z
" id="DejaVuSans-72"/>
      <path d="M 34.28125 27.484375 
Q 23.390625 27.484375 19.1875 25 
Q 14.984375 22.515625 14.984375 16.5 
Q 14.984375 11.71875 18.140625 8.90625 
Q 21.296875 6.109375 26.703125 6.109375 
Q 34.1875 6.109375 38.703125 11.40625 
Q 43.21875 16.703125 43.21875 25.484375 
L 43.21875 27.484375 
z
M 52.203125 31.203125 
L 52.203125 0 
L 43.21875 0 
L 43.21875 8.296875 
Q 40.140625 3.328125 35.546875 0.953125 
Q 30.953125 -1.421875 24.3125 -1.421875 
Q 15.921875 -1.421875 10.953125 3.296875 
Q 6 8.015625 6 15.921875 
Q 6 25.140625 12.171875 29.828125 
Q 18.359375 34.515625 30.609375 34.515625 
L 43.21875 34.515625 
L 43.21875 35.40625 
Q 43.21875 41.609375 39.140625 45 
Q 35.0625 48.390625 27.6875 48.390625 
Q 23 48.390625 18.546875 47.265625 
Q 14.109375 46.140625 10.015625 43.890625 
L 10.015625 52.203125 
Q 14.9375 54.109375 19.578125 55.046875 
Q 24.21875 56 28.609375 56 
Q 40.484375 56 46.34375 49.84375 
Q 52.203125 43.703125 52.203125 31.203125 
" id="DejaVuSans-61"/>
      <path d="M 9.421875 54.6875 
L 18.40625 54.6875 
L 18.40625 0 
L 9.421875 0 
z
M 9.421875 75.984375 
L 18.40625 75.984375 
L 18.40625 64.59375 
L 9.421875 64.59375 
z
" id="DejaVuSans-69"/>
      <path d="M 54.890625 33.015625 
L 54.890625 0 
L 45.90625 0 
L 45.90625 32.71875 
Q 45.90625 40.484375 42.875 44.328125 
Q 39.84375 48.1875 33.796875 48.1875 
Q 26.515625 48.1875 22.3125 43.546875 
Q 18.109375 38.921875 18.109375 30.90625 
L 18.109375 0 
L 9.078125 0 
L 9.078125 54.6875 
L 18.109375 54.6875 
L 18.109375 46.1875 
Q 21.34375 51.125 25.703125 53.5625 
Q 30.078125 56 35.796875 56 
Q 45.21875 56 50.046875 50.171875 
Q 54.890625 44.34375 54.890625 33.015625 
" id="DejaVuSans-6e"/>
     </defs>
     <g transform="translate(94.6 58.070437)scale(0.1 -0.1)">
      <use xlink:href="#DejaVuSans-74"/>
      <use x="39.208984" xlink:href="#DejaVuSans-72"/>
      <use x="80.322266" xlink:href="#DejaVuSans-61"/>
      <use x="141.601562" xlink:href="#DejaVuSans-69"/>
      <use x="169.384766" xlink:href="#DejaVuSans-6e"/>
     </g>
    </g>
    <g id="line2d_20">
     <path d="M 66.6 69.248562 
L 86.6 69.248562 
" style="fill:none;stroke:#ff7f0e;stroke-linecap:square;stroke-width:1.5;"/>
    </g>
    <g id="line2d_21"/>
    <g id="text_20">
     <!-- test -->
     <g transform="translate(94.6 72.748562)scale(0.1 -0.1)">
      <use xlink:href="#DejaVuSans-74"/>
      <use x="39.208984" xlink:href="#DejaVuSans-65"/>
      <use x="100.732422" xlink:href="#DejaVuSans-73"/>
      <use x="152.832031" xlink:href="#DejaVuSans-74"/>
     </g>
    </g>
   </g>
  </g>
 </g>
 <defs>
  <clipPath id="p8f5cf9cbca">
   <rect height="266.112" width="357.12" x="57.6" y="41.472"/>
  </clipPath>
 </defs>
</svg>
